<svg width="31" height="31" viewBox="0 0 31 31" fill="none" xmlns="http://www.w3.org/2000/svg">
<path d="M12 16C11.6235 15.836 10.679 16.0074 10 16H7V20H10C10.6889 20 11.6147 20.178 12 20C12.6928 19.6738 13 18.9236 13 18C13 17.2199 12.6741 16.2917 12 16Z" fill="#D799F3"/>
<path d="M12 12.9995C12.4533 12.7756 13 11.5731 13 10.9995C13 10.3667 12.6013 10.2014 12 9.99945C11.4832 9.86006 10.8013 9.99945 10 9.99945H7V12.9995H11C11.7284 12.9986 11.5457 13.2242 12 12.9995Z" fill="#D799F3"/>
<path d="M23 14C22.2541 14 21.41 14.6427 21 15C20.589 15.359 20.1059 15.3851 20 16H25C24.9432 15.3467 24.4639 15.3377 24 15C23.5409 14.659 23.6843 14 23 14Z" fill="#D799F3"/>
<path d="M0 0V31H31V0H0ZM19 8H25V10H19V8ZM15 21C14.6988 21.4942 14.4479 21.6633 14 22C13.495 22.3878 13.6861 22.8582 13 23C12.3119 23.1437 10.8013 23 10 23H3V8H11C12.9274 8.02855 14.1928 7.90045 15 9C15.4853 9.6743 16 11.0629 16 12C16 12.9716 15.4902 13.4123 15 14C14.7293 14.3317 14.5325 14.7293 14 15C14.8062 15.2973 15.5915 15.3582 16 16C16.4115 16.6359 16 18.0934 16 19C16.001 19.9411 15.4725 20.2558 15 21ZM28 18H20C20.0463 19.1409 20.2519 19.5423 21 20C21.4499 20.2865 21.3611 21 22 21C22.6763 21 23.5747 20.3485 24 20C24.2303 19.8149 24.8238 20.3308 25 20H28C27.9212 20.6743 27.6566 21.304 27 22C25.9861 23.1035 23.829 23 22 23C20.488 23 19.1557 22.9283 18 22C16.8483 21.0688 17 19.0997 17 17C17 15.0322 16.9575 14.0493 18 13C19.0464 11.9507 20.3364 11 22 11C22.9873 11 24.2056 11.6476 25 12C25.7905 12.3563 26.4871 12.2342 27 13C27.4676 13.6763 27.8582 15.1072 28 16C28.0807 16.5148 28.0148 17.0176 28 18Z" fill="#D799F3"/>
</svg>
