<svg width="47" height="47" viewBox="0 0 47 47" fill="none" xmlns="http://www.w3.org/2000/svg">
<path d="M30.9832 23.5L45.4246 9.13889C47.5251 7.05 47.5251 3.91667 45.4246 1.82778C44.6369 0.783333 43.324 0 42.0112 0C40.6983 0 39.3855 0.522222 38.3352 1.56667L23.6313 16.1889L9.18994 1.82778C7.08939 -0.261111 3.67598 -0.261111 1.83799 1.82778C0.787709 2.61111 0 3.91667 0 5.48333C0 7.05 0.525139 8.09445 1.57542 9.13889L16.0168 23.5L1.57542 37.8611C0.787709 38.9056 0 40.2111 0 41.7778C0 43.0833 0.525139 44.3889 1.57542 45.4333C2.6257 46.4778 3.93855 47 5.2514 47C6.56425 47 7.87709 46.4778 8.92737 45.4333L23.3687 31.0722L37.8101 45.4333C39.9106 47.5222 43.324 47.5222 45.162 45.4333C47.2626 43.3444 47.2626 39.95 45.162 38.1222L30.9832 23.5Z" fill="white"/>
</svg>
