<svg width="32" height="31" viewBox="0 0 32 31" fill="none" xmlns="http://www.w3.org/2000/svg">
<path d="M24 6C22.8571 6 22 6.85714 22 8C22 9.14286 22.8571 10 24 10C25.1429 10 26 9.14286 26 8C26 6.85714 25.1429 6 24 6Z" fill="#D799F3"/>
<path d="M16 8C11.8051 8 8 11.9322 8 16C8 20.0678 11.9322 23 16 23C20.0678 23 23 20.0678 23 16C23 11.9322 20.1949 8 16 8ZM16 20C13.3305 20 11 18.6695 11 16C11 13.3305 13.3305 11 16 11C18.6695 11 20 13.3305 20 16C20 18.6695 18.6695 20 16 20Z" fill="#D799F3"/>
<path d="M22 0H9C3.68252 0 0 3.81172 0 9V22C0 27.1883 3.81221 31 9 31H22C27.1878 31 31 27.1883 31 22V9C31.1297 3.81172 27.1878 0 22 0ZM28 22C28 25.5021 25.6315 28 22 28H9C5.49824 28 3 25.6318 3 22V9C3 5.49791 5.36855 3 9 3H22C25.5018 3 28 5.3682 28 9V22Z" fill="#D799F3"/>
</svg>
