<svg width="112" height="132" viewBox="0 0 112 132" fill="none" xmlns="http://www.w3.org/2000/svg">
<path d="M111.15 47.1621V84.2493C111.15 96.6662 106.217 108.575 97.4371 117.355C88.6571 126.135 76.7488 131.067 64.332 131.067V94.0125C64.3278 87.8616 65.5356 81.77 67.8865 76.0861C70.2374 70.4021 73.6853 65.2371 78.0331 60.8862C82.381 56.5353 87.5435 53.0839 93.2258 50.729C98.9081 48.3742 104.999 47.1621 111.15 47.1621Z" fill="#4EB152"/>
<path d="M52.4316 52.7353V106.433C38.6036 106.427 25.3439 100.93 15.568 91.1499C5.79218 81.3699 0.30048 68.1078 0.300484 54.2797V0.582031C14.1285 0.587758 27.3882 6.08498 37.1641 15.865C46.94 25.645 52.4316 38.9071 52.4316 52.7353Z" fill="#4EB152"/>
<path d="M99.2893 27.0162C101.552 17.5054 95.6756 7.96149 86.1649 5.69922C76.6542 3.43695 67.1104 9.31301 64.8481 18.8238C62.5859 28.3345 68.4619 37.8784 77.9726 40.1406C87.4832 42.4029 97.027 36.5269 99.2893 27.0162Z" fill="#4EB152"/>
</svg>
