<svg width="136" height="148" viewBox="0 0 136 148" fill="none" xmlns="http://www.w3.org/2000/svg">
<g clip-path="url(#clip0_133_439)">
<path fill-rule="evenodd" clip-rule="evenodd" d="M68.3876 0.706055L0.955078 39.5262V68.7075L34.1122 87.7965L102.665 48.332L112.717 54.1179L44.1638 93.5846L68.3876 107.53L135.82 68.7075V39.5262L102.665 20.4394L34.1122 59.9039L24.0606 54.1179L92.6115 14.6513L68.3876 0.706055Z" fill="black"/>
<path fill-rule="evenodd" clip-rule="evenodd" d="M68.3871 80.8867L46.3324 93.5845L68.3871 106.28V80.8867ZM68.3871 1.95557L2.0293 40.1531V68.0848L34.103 86.549L68.3784 66.807V41.4244L34.103 61.1664L21.8888 54.1135L68.3871 27.349V1.95557Z" fill="#FFF500" fill-opacity="0.95"/>
<path fill-rule="evenodd" clip-rule="evenodd" d="M135.82 80.5225L68.3876 119.343L0.955078 80.5225V108.413L68.3876 147.235L135.82 108.413V80.5225Z" fill="black"/>
<path fill-rule="evenodd" clip-rule="evenodd" d="M68.3879 120.592L2.04102 82.3945V107.788L68.3879 145.985V120.592Z" fill="#FFF500" fill-opacity="0.95"/>
</g>
<defs>
<clipPath id="clip0_133_439">
<path d="M0.957031 36.706C0.957031 16.8238 17.0748 0.706055 36.957 0.706055H135.822V111.235C135.822 131.117 119.704 147.235 99.8222 147.235H0.957031V36.706Z" fill="white"/>
</clipPath>
</defs>
</svg>
