<svg width="157" height="117" viewBox="0 0 157 117" fill="none" xmlns="http://www.w3.org/2000/svg">
<g filter="url(#filter0_d_133_434)">
<path fill-rule="evenodd" clip-rule="evenodd" d="M35.5015 11.5762C35.3012 11.5762 35.1072 11.6464 34.9533 11.7746L25.2241 19.8823C25.0289 20.045 24.916 20.286 24.916 20.5401V71.1153C24.916 71.3696 25.0289 71.6106 25.2241 71.7733L34.9533 79.8807C35.1072 80.0091 35.3012 80.0793 35.5015 80.0793H45.467H53.3773C54.1782 80.0793 54.5408 79.0779 53.9255 78.5654L45.7052 71.7151C45.5512 71.5866 45.3573 71.5164 45.157 71.5164H36.0478C35.5749 71.5164 35.1915 71.1332 35.1915 70.6601V20.9954C35.1915 20.5224 35.5749 20.1391 36.0478 20.1391H65.1616C65.6346 20.1391 66.0179 20.5224 66.0179 20.9954V62.5524C66.0179 62.8067 66.1308 63.0477 66.326 63.2104L74.8891 70.3459C75.4465 70.8108 76.2934 70.4144 76.2934 69.6882V62.9535V20.5402C76.2934 20.286 76.1804 20.045 75.9851 19.8823L66.2561 11.7746C66.1022 11.6464 65.9082 11.5762 65.7079 11.5762H35.5015ZM56.0505 71.7733C55.8553 71.6106 55.7425 71.3696 55.7425 71.1153V64.7817C55.7425 64.0556 56.5892 63.6591 57.1469 64.1241L66.0179 71.5164L74.4764 78.5654C75.0916 79.0779 74.729 80.0793 73.9283 80.0793H66.3279C66.1276 80.0793 65.9337 80.0091 65.7798 79.8807L56.0505 71.7733ZM103.695 55.2469C103.695 54.7738 104.078 54.3906 104.551 54.3906H133.665C134.138 54.3906 134.521 54.7738 134.521 55.2469V79.223C134.521 79.6961 134.904 80.0793 135.377 80.0793H143.94C144.413 80.0793 144.797 79.6961 144.797 79.223V20.5402C144.797 20.286 144.684 20.045 144.488 19.8823L134.759 11.7746C134.605 11.6464 134.412 11.5762 134.211 11.5762H104.005C103.804 11.5762 103.61 11.6464 103.457 11.7746L93.7275 19.8823C93.5322 20.045 93.4192 20.286 93.4192 20.5402V79.223C93.4192 79.6961 93.8024 80.0793 94.2755 80.0793H102.838C103.311 80.0793 103.695 79.6961 103.695 79.223V55.2469ZM104.551 45.8277C104.078 45.8277 103.695 45.4444 103.695 44.9715V20.9954C103.695 20.5224 104.078 20.1391 104.551 20.1391H133.665C134.138 20.1391 134.521 20.5224 134.521 20.9954V44.9715C134.521 45.4444 134.138 45.8277 133.665 45.8277H104.551Z" fill="#93FF12"/>
<path fill-rule="evenodd" clip-rule="evenodd" d="M16.0411 91.3196C16.0792 91.2879 16.1272 91.2705 16.1768 91.2705H23.6536C23.7032 91.2705 23.7512 91.2879 23.7893 91.3196L26.1975 93.3265C26.2458 93.3668 26.2738 93.4264 26.2738 93.4893V99.6493C26.2738 99.7122 26.2458 99.7719 26.1975 99.8122L23.7893 101.819C23.7512 101.851 23.7032 101.868 23.6536 101.868H16.312C16.195 101.868 16.1001 101.963 16.1001 102.08V108.015C16.1001 108.132 16.0052 108.227 15.8881 108.227H13.7686C13.6515 108.227 13.5566 108.132 13.5566 108.015V93.4893C13.5566 93.4264 13.5846 93.3668 13.6329 93.3265L16.0411 91.3196ZM16.312 99.7486C16.195 99.7486 16.1001 99.6537 16.1001 99.5367V93.602C16.1001 93.4849 16.195 93.39 16.312 93.39H23.5184C23.6355 93.39 23.7304 93.4849 23.7304 93.602V99.5367C23.7304 99.6537 23.6355 99.7486 23.5184 99.7486H16.312ZM30.7248 91.2705C30.6077 91.2705 30.5129 91.3654 30.5129 91.4825V93.1781C30.5129 93.2951 30.6077 93.39 30.7248 93.39H32.8444C32.9615 93.39 33.0563 93.4849 33.0563 93.602V106.008C33.0563 106.071 33.0843 106.131 33.1326 106.171L35.5408 108.178C35.5789 108.209 35.6269 108.227 35.6765 108.227H37.9312C38.0483 108.227 38.1432 108.132 38.1432 108.015V106.319C38.1432 106.202 38.0483 106.107 37.9312 106.107H35.8117C35.6946 106.107 35.5997 106.012 35.5997 105.895V93.4893C35.5997 93.4264 35.5718 93.3668 35.5234 93.3265L33.1152 91.3196C33.0772 91.2879 33.0292 91.2705 32.9796 91.2705H30.7248ZM45.0024 97.6291C44.9528 97.6291 44.9048 97.6465 44.8668 97.6782L42.4585 99.6851C42.4102 99.7253 42.3822 99.785 42.3822 99.8479V106.008C42.3822 106.071 42.4102 106.131 42.4585 106.171L44.8668 108.178C44.9048 108.209 44.9528 108.227 45.0024 108.227H47.2572C47.3743 108.227 47.4691 108.132 47.4691 108.015V106.319C47.4691 106.202 47.3743 106.107 47.2572 106.107H45.1376C45.0205 106.107 44.9257 106.012 44.9257 105.895V99.9606C44.9257 99.8435 45.0205 99.7486 45.1376 99.7486H49.8006C49.9177 99.7486 50.0126 99.8435 50.0126 99.9606V108.015C50.0126 108.132 50.1074 108.227 50.2245 108.227H52.344C52.4611 108.227 52.556 108.132 52.556 108.015V99.8479C52.556 99.785 52.528 99.7253 52.4797 99.6851L50.0715 97.6782C50.0334 97.6465 49.9854 97.6291 49.9358 97.6291H45.0024ZM66.7568 99.7486C66.8739 99.7486 66.9688 99.8435 66.9688 99.9606V114.486C66.9688 114.549 66.9408 114.609 66.8925 114.649L64.4843 116.656C64.4462 116.687 64.3982 116.705 64.3486 116.705H59.4152C59.3656 116.705 59.3176 116.687 59.2796 116.656L56.9905 114.748C56.8887 114.663 56.8887 114.507 56.9905 114.423L58.9909 112.756C59.1289 112.64 59.3385 112.739 59.3385 112.918V114.373C59.3385 114.49 59.4333 114.585 59.5504 114.585H64.2134C64.3305 114.585 64.4254 114.49 64.4254 114.373V108.439C64.4254 108.322 64.3305 108.227 64.2134 108.227H59.4152C59.3656 108.227 59.3176 108.209 59.2796 108.178L56.8713 106.171C56.823 106.131 56.795 106.071 56.795 106.008V99.9606C56.795 99.8435 56.8899 99.7486 57.007 99.7486H59.1265C59.2436 99.7486 59.3385 99.8435 59.3385 99.9606V105.895C59.3385 106.012 59.4333 106.107 59.5504 106.107H64.2134C64.3305 106.107 64.4254 106.012 64.4254 105.895V99.9606C64.4254 99.8435 64.5202 99.7486 64.6373 99.7486H66.7568Z" fill="#93FF12"/>
<path fill-rule="evenodd" clip-rule="evenodd" d="M83.8678 91.2705C83.9175 91.2705 83.9656 91.2879 84.0038 91.3196L86.4169 93.3265C86.4654 93.3668 86.4934 93.4264 86.4934 93.4893V97.4171C86.4934 97.5342 86.3984 97.6291 86.281 97.6291H84.1571C84.0398 97.6291 83.9447 97.5342 83.9447 97.4171V93.602C83.9447 93.4849 83.8496 93.39 83.7323 93.39H76.5111C76.3938 93.39 76.2987 93.4849 76.2987 93.602V105.895C76.2987 106.012 76.3938 106.107 76.5111 106.107H83.7323C83.8496 106.107 83.9447 106.012 83.9447 105.895V102.08C83.9447 101.963 83.8496 101.868 83.7323 101.868H81.6084C81.4911 101.868 81.396 101.773 81.396 101.656V99.9606C81.396 99.8435 81.4911 99.7486 81.6084 99.7486H83.9447H86.281C86.3984 99.7486 86.4934 99.8435 86.4934 99.9606V106.008C86.4934 106.071 86.4654 106.131 86.4169 106.171L84.0038 108.178C83.9656 108.209 83.9175 108.227 83.8678 108.227H76.3756C76.3259 108.227 76.2778 108.209 76.2396 108.178L73.8264 106.171C73.778 106.131 73.75 106.071 73.75 106.008V93.4893C73.75 93.4264 73.778 93.3668 73.8264 93.3265L76.2396 91.3196C76.2778 91.2879 76.3259 91.2705 76.3756 91.2705H83.8678ZM153.821 91.2705C153.704 91.2705 153.609 91.3654 153.609 91.4825V97.4171C153.609 97.5342 153.514 97.6291 153.396 97.6291H148.588C148.538 97.6291 148.49 97.6465 148.452 97.6782L146.039 99.6851C145.991 99.7253 145.963 99.785 145.963 99.8479V106.008C145.963 106.071 145.991 106.131 146.039 106.171L148.452 108.178C148.49 108.209 148.538 108.227 148.588 108.227H153.532C153.581 108.227 153.63 108.209 153.668 108.178L156.081 106.171C156.129 106.131 156.157 106.071 156.157 106.008V91.4825C156.157 91.3654 156.062 91.2705 155.945 91.2705H153.821ZM153.396 106.107C153.514 106.107 153.609 106.012 153.609 105.895V99.9606C153.609 99.8435 153.514 99.7486 153.396 99.7486H148.724C148.606 99.7486 148.511 99.8435 148.511 99.9606V105.895C148.511 106.012 148.606 106.107 148.724 106.107H153.396ZM105.184 99.9606C105.184 99.8435 105.279 99.7486 105.396 99.7486H110.069C110.186 99.7486 110.281 99.8435 110.281 99.9606V105.895C110.281 106.012 110.186 106.107 110.069 106.107H105.396C105.279 106.107 105.184 106.012 105.184 105.895V99.9606ZM110.204 108.227C110.254 108.227 110.302 108.209 110.34 108.178L112.753 106.171C112.802 106.131 112.83 106.071 112.83 106.008V99.8479C112.83 99.785 112.802 99.7253 112.753 99.6851L110.34 97.6782C110.302 97.6465 110.254 97.6291 110.204 97.6291H105.261C105.211 97.6291 105.163 97.6465 105.125 97.6782L102.711 99.6851C102.663 99.7253 102.635 99.785 102.635 99.8479V106.008C102.635 106.071 102.663 106.131 102.711 106.171L105.125 108.178C105.163 108.209 105.211 108.227 105.261 108.227H110.204ZM131.52 97.841C131.52 97.724 131.615 97.6291 131.732 97.6291H134.069H139.089C139.139 97.6291 139.187 97.6465 139.225 97.6782L141.638 99.6851C141.687 99.7253 141.715 99.785 141.715 99.8479V108.015C141.715 108.132 141.62 108.227 141.502 108.227H139.379C139.261 108.227 139.166 108.132 139.166 108.015V99.9606C139.166 99.8435 139.071 99.7486 138.954 99.7486H134.281C134.164 99.7486 134.069 99.8435 134.069 99.9606V108.015C134.069 108.132 133.974 108.227 133.856 108.227H131.732C131.615 108.227 131.52 108.132 131.52 108.015V97.841ZM127.272 106.107L124.724 108.227H119.626L117.078 106.107V97.6291H119.626V106.107H124.724V97.6291H127.272V106.107ZM93.0775 108.227C93.1948 108.227 93.2899 108.132 93.2899 108.015V99.9606C93.2899 99.8435 93.3849 99.7486 93.5023 99.7486H98.1748C98.2922 99.7486 98.3872 99.6537 98.3872 99.5367V97.841C98.3872 97.724 98.2922 97.6291 98.1748 97.6291H93.3668C93.3171 97.6291 93.269 97.6465 93.2308 97.6782L90.8177 99.6851C90.7692 99.7253 90.7412 99.785 90.7412 99.8479V108.015C90.7412 108.132 90.8362 108.227 90.9536 108.227H93.0775Z" fill="#93FF12"/>
</g>
<defs>
<filter id="filter0_d_133_434" x="0.434631" y="0.641164" width="155.724" height="116.064" filterUnits="userSpaceOnUse" color-interpolation-filters="sRGB">
<feFlood flood-opacity="0" result="BackgroundImageFix"/>
<feColorMatrix in="SourceAlpha" type="matrix" values="0 0 0 0 0 0 0 0 0 0 0 0 0 0 0 0 0 0 127 0" result="hardAlpha"/>
<feOffset dx="-13.122" dy="-10.935"/>
<feComposite in2="hardAlpha" operator="out"/>
<feColorMatrix type="matrix" values="0 0 0 0 0.6125 0 0 0 0 0 0 0 0 0 0.588 0 0 0 1 0"/>
<feBlend mode="normal" in2="BackgroundImageFix" result="effect1_dropShadow_133_434"/>
<feBlend mode="normal" in="SourceGraphic" in2="effect1_dropShadow_133_434" result="shape"/>
</filter>
</defs>
</svg>
