<svg width="32" height="32" viewBox="0 0 32 32" fill="none" xmlns="http://www.w3.org/2000/svg">
<path d="M17 0C13.9345 0 10.549 1.29684 8.00001 3C5.45105 4.70316 3.17316 7.16775 2.00001 10C0.826851 12.8322 0.40194 15.9934 1.00001 19C1.59808 22.0068 3.83229 23.8321 6.00001 26C8.16772 28.1677 9.99326 30.4019 13 31C16.0066 31.5981 19.1678 31.1732 22 30C24.8322 28.8268 27.2968 26.549 29 24C30.7031 21.451 32 18.0657 32 15C32 10.8892 29.9066 7.90681 27 5C24.0932 2.09317 21.1108 0 17 0ZM24 11L22 23C21.8063 23.8525 20.7169 23.3875 20 23L16 20L14 22C13.9088 22.1192 14.1343 21.9328 14 22C13.8657 22.067 14.1502 22.9985 14 23V19L21 12C21.3294 11.7288 21.465 11.7288 21 12L12 18L8.00001 16C7.16688 15.7481 6.97313 15.3875 8.00001 15L23 9C23.7363 8.78688 24.2325 9.95375 24 11Z" fill="#D799F3"/>
</svg>
