<svg width="769" height="293" viewBox="0 0 769 293" fill="none" xmlns="http://www.w3.org/2000/svg">
<path fill-rule="evenodd" clip-rule="evenodd" d="M77.4381 127.941C77.8537 127.941 78.2677 127.943 78.6801 127.946V100.764H103.425C119.622 100.764 132.744 95.9663 142.792 86.3697C152.99 76.6231 158.089 64.5523 158.089 50.1574C158.089 36.5122 153.215 24.8163 143.467 15.0697C133.719 5.32313 119.847 0.449838 101.85 0.449838H44.9369V133.426C54.6662 129.769 65.5 127.941 77.4381 127.941ZM96.2265 25.4161H78.4551V75.7984H96.0015C105.599 75.7984 112.723 73.4742 117.372 68.8258C122.171 64.1775 124.571 58.1796 124.571 50.8321C124.571 43.4847 122.096 37.4118 117.147 32.6135C112.198 27.8152 105.225 25.4161 96.2265 25.4161ZM215.867 89.0687V131.315H182.349V0.224917H284.028V26.0908H215.867V64.1025H275.48V89.0687H215.867ZM414.986 0V25.8659H371.795V128.768C359.404 129.858 348.231 133.314 338.277 139.136V25.8659H294.861V0H414.986ZM22.2705 161.646C7.42348 176.791 0 195.384 0 217.427C0 239.919 6.74862 258.137 20.2459 272.082C34.0431 286.027 53.2392 293 77.8341 293C98.8299 293 116.301 290.151 130.248 284.453V214.053H100.555V263.086C94.4058 265.335 87.7321 266.459 80.5336 266.459C65.2367 266.459 53.6891 261.961 45.8907 252.964C38.0923 243.817 34.1931 232.121 34.1931 217.876C34.1931 202.282 38.8421 189.836 48.1402 180.539C57.7383 171.243 69.7358 166.594 84.1329 166.594C98.5299 166.594 111.727 169.743 123.725 176.041V147.026C112.327 141.628 98.23 138.929 81.4334 138.929C57.1384 138.929 37.4174 146.501 22.2705 161.646ZM222.41 142.303H162.347V290.526H195.865V167.719H216.111C224.809 167.719 231.708 170.268 236.807 175.366C241.906 180.315 244.455 187.062 244.455 195.609C244.455 203.406 241.381 210.229 235.232 216.077C229.233 221.925 220.685 225.524 209.587 226.873V230.022L248.729 290.526H286.971L247.829 235.87C257.427 231.522 264.776 225.224 269.875 216.977C274.974 208.58 277.523 199.883 277.523 190.886C277.523 175.741 272.124 163.895 261.327 155.348C250.829 146.651 237.856 142.303 222.41 142.303ZM326.065 271.408C340.762 285.803 360.183 293 384.329 293C407.724 293 426.77 285.728 441.467 271.183C456.464 256.638 463.962 238.344 463.962 216.302C463.962 194.41 456.539 176.191 441.692 161.646C426.845 146.801 407.799 139.379 384.553 139.379C361.608 139.379 342.487 146.801 327.19 161.646C312.043 176.491 304.47 194.709 304.47 216.302C304.47 238.494 311.668 256.863 326.065 271.408ZM351.26 181.214C359.959 171.768 371.131 167.044 384.778 167.044C398.726 167.044 409.823 171.768 418.072 181.214C426.62 190.661 430.894 202.357 430.894 216.302C430.894 230.397 426.62 242.243 418.072 251.839C409.823 261.436 398.726 266.234 384.778 266.234C370.681 266.234 359.359 261.511 350.81 252.064C342.412 242.468 338.213 230.547 338.213 216.302C338.213 202.207 342.562 190.511 351.26 181.214ZM587.874 142.078V233.171C587.874 242.618 585.174 250.415 579.776 256.563C574.527 262.561 567.178 265.56 557.73 265.56C548.132 265.56 540.634 262.411 535.235 256.113C529.986 249.815 527.361 241.793 527.361 232.046V142.078H493.843V232.271C493.843 251.165 499.242 266.009 510.04 276.806C520.988 287.602 536.809 293 557.505 293C577.901 293 593.648 287.377 604.745 276.131C615.693 264.735 621.167 249.89 621.167 231.597V142.078H587.874ZM655.848 290.526H689.591V242.618H714.336C730.533 242.618 743.655 237.819 753.703 228.223C763.901 218.476 769 206.405 769 192.01C769 178.365 764.126 166.669 754.378 156.923C744.63 147.176 730.758 142.303 712.761 142.303H655.848V290.526ZM689.366 167.269H707.138C716.136 167.269 723.109 169.668 728.058 174.467C733.007 179.265 735.482 185.338 735.482 192.685C735.482 200.033 733.082 206.031 728.283 210.679C723.634 215.327 716.511 217.651 706.913 217.651H689.366V167.269Z" fill="black"/>
</svg>
