<svg width="31" height="31" viewBox="0 0 31 31" fill="none" xmlns="http://www.w3.org/2000/svg">
<path d="M11.8452 16.715C11.4692 16.5418 10.9406 16.4551 10.2624 16.4473H6.86133V20.6722H10.2082C10.8963 20.6722 11.4288 20.5816 11.8137 20.3936C12.5057 20.0491 12.8542 19.3906 12.8542 18.415C12.8542 17.5911 12.5185 17.0231 11.8452 16.715Z" fill="url(#paint0_linear_254_160)"/>
<path d="M11.8885 13.4319C12.3167 13.171 12.5294 12.7073 12.5294 12.039C12.5294 11.3017 12.2478 10.8124 11.6799 10.5772C11.1916 10.4147 10.5665 10.3301 9.80954 10.3301H6.86133V13.8256H10.2131C10.9012 13.8246 11.4594 13.6937 11.8885 13.4319Z" fill="url(#paint1_linear_254_160)"/>
<path d="M22.1649 13.7236C21.402 13.7236 20.8114 13.9441 20.392 14.3743C19.9717 14.8064 19.7098 15.3912 19.6016 16.1314H24.7154C24.6573 15.3449 24.3945 14.7464 23.92 14.3399C23.4505 13.9294 22.8648 13.7236 22.1649 13.7236Z" fill="url(#paint2_linear_254_160)"/>
<path d="M0 0V31H31V0H0ZM18.9483 8.2353H25.328V9.82014H18.9483V8.2353ZM15.4882 21.168C15.187 21.6622 14.8139 22.0776 14.366 22.4143C13.861 22.8021 13.2645 23.0679 12.5784 23.2096C11.8903 23.3534 11.1441 23.4242 10.3428 23.4242H3.20513V7.5797H10.8587C12.7861 7.60825 14.1544 8.16738 14.9615 9.26692C15.4468 9.94122 15.686 10.7474 15.686 11.6846C15.686 12.6561 15.4429 13.4299 14.9527 14.0175C14.682 14.3493 14.2794 14.6485 13.7468 14.9192C14.553 15.2165 15.1643 15.6782 15.5728 16.32C15.9843 16.9559 16.19 17.7326 16.19 18.6392C16.191 19.5802 15.9607 20.4239 15.4882 21.168ZM27.7929 18.0899H19.5281C19.5743 19.2308 19.9671 20.0281 20.7152 20.4859C21.1651 20.7723 21.7114 20.9111 22.3503 20.9111C23.0265 20.9111 23.5719 20.7408 23.9971 20.3924C24.2275 20.2073 24.4293 19.9445 24.6055 19.6137H27.6344C27.5557 20.288 27.1914 20.9692 26.5349 21.6652C25.521 22.7686 24.0966 23.3228 22.2676 23.3228C20.7556 23.3228 19.4247 22.8533 18.2691 21.925C17.1173 20.9938 16.5365 19.4789 16.5365 17.3792C16.5365 15.4114 17.0563 13.9033 18.0988 12.854C19.1451 11.8046 20.4957 11.281 22.1593 11.281C23.1466 11.281 24.0345 11.4572 24.8289 11.8096C25.6194 12.1659 26.273 12.725 26.7859 13.4909C27.2535 14.1672 27.5507 14.9478 27.6925 15.8406C27.7732 16.3554 27.8077 17.1075 27.7929 18.0899Z" fill="url(#paint3_linear_254_160)"/>
<defs>
<linearGradient id="paint0_linear_254_160" x1="9.85777" y1="16.4473" x2="9.85777" y2="20.6722" gradientUnits="userSpaceOnUse">
<stop stop-color="#D799F3" stop-opacity="0"/>
<stop offset="0.54375" stop-color="#D799F3"/>
</linearGradient>
<linearGradient id="paint1_linear_254_160" x1="9.69535" y1="10.3301" x2="9.69535" y2="13.8256" gradientUnits="userSpaceOnUse">
<stop stop-color="#D799F3" stop-opacity="0"/>
<stop offset="0.54375" stop-color="#D799F3"/>
</linearGradient>
<linearGradient id="paint2_linear_254_160" x1="22.1585" y1="13.7236" x2="22.1585" y2="16.1314" gradientUnits="userSpaceOnUse">
<stop stop-color="#D799F3" stop-opacity="0"/>
<stop offset="0.54375" stop-color="#D799F3"/>
</linearGradient>
<linearGradient id="paint3_linear_254_160" x1="15.5" y1="0" x2="15.5" y2="31" gradientUnits="userSpaceOnUse">
<stop stop-color="#D799F3" stop-opacity="0"/>
<stop offset="0.54375" stop-color="#D799F3"/>
</linearGradient>
</defs>
</svg>
