<svg width="31" height="31" viewBox="0 0 31 31" fill="none" xmlns="http://www.w3.org/2000/svg">
<path d="M23.7337 5.70703C22.6961 5.70703 21.918 6.48527 21.918 7.52293C21.918 8.56059 22.6961 9.33883 23.7337 9.33883C24.7713 9.33883 25.5494 8.56059 25.5494 7.52293C25.5494 6.48527 24.7713 5.70703 23.7337 5.70703Z" fill="url(#paint0_linear_254_165)"/>
<path d="M15.5621 8.04199C11.2822 8.04199 7.91016 11.5441 7.91016 15.6947C7.91016 19.8453 11.4119 23.3474 15.5621 23.3474C19.7124 23.3474 23.2141 19.8453 23.2141 15.6947C23.2141 11.5441 19.8421 8.04199 15.5621 8.04199ZM15.5621 20.6236C12.8386 20.6236 10.6337 18.4186 10.6337 15.6947C10.6337 12.9709 12.8386 10.7658 15.5621 10.7658C18.2857 10.7658 20.4905 12.9709 20.4905 15.6947C20.4905 18.4186 18.2857 20.6236 15.5621 20.6236Z" fill="url(#paint1_linear_254_165)"/>
<path d="M21.7887 0H9.46772C4.15023 0 0 4.15063 0 9.33891V21.6611C0 26.8494 4.15023 31 9.33802 31H21.659C26.8468 31 30.997 26.8494 30.997 21.6611V9.33891C31.1267 4.15063 26.9765 0 21.7887 0ZM28.1438 21.7908C28.1438 25.2929 25.2905 28.2761 21.659 28.2761H9.33802C5.83626 28.2761 2.85328 25.4226 2.85328 21.7908V9.46862C2.85328 5.96653 5.70657 2.98326 9.33802 2.98326H21.659C25.1608 2.98326 28.1438 5.83682 28.1438 9.46862V21.7908Z" fill="url(#paint2_linear_254_165)"/>
<defs>
<linearGradient id="paint0_linear_254_165" x1="23.7337" y1="5.70703" x2="23.7337" y2="9.33883" gradientUnits="userSpaceOnUse">
<stop stop-color="#D799F3" stop-opacity="0"/>
<stop offset="0.54375" stop-color="#D799F3"/>
</linearGradient>
<linearGradient id="paint1_linear_254_165" x1="15.5621" y1="8.04199" x2="15.5621" y2="23.3474" gradientUnits="userSpaceOnUse">
<stop stop-color="#D799F3" stop-opacity="0"/>
<stop offset="0.54375" stop-color="#D799F3"/>
</linearGradient>
<linearGradient id="paint2_linear_254_165" x1="15.5" y1="0" x2="15.5" y2="31" gradientUnits="userSpaceOnUse">
<stop stop-color="#D799F3" stop-opacity="0"/>
<stop offset="0.54375" stop-color="#D799F3"/>
</linearGradient>
</defs>
</svg>
