<svg width="31" height="31" viewBox="0 0 31 31" fill="none" xmlns="http://www.w3.org/2000/svg">
<path d="M15.5 0C12.4345 0 9.43762 0.909055 6.88866 2.61221C4.33971 4.31537 2.35303 6.73614 1.17988 9.56839C0.00672221 12.4006 -0.300237 15.5172 0.297831 18.5238C0.895899 21.5306 2.37214 24.2924 4.53985 26.4602C6.70757 28.6279 9.46939 30.1041 12.4761 30.7022C15.4828 31.3003 18.5994 30.9932 21.4317 29.82C24.2639 28.6469 26.6846 26.6604 28.3879 24.1114C30.0909 21.5624 31 18.5657 31 15.5C31 11.3891 29.3669 7.44666 26.4602 4.53985C23.5534 1.63302 19.6108 0 15.5 0ZM23.1144 10.6175L20.5763 22.6106C20.3825 23.4631 19.8787 23.6569 19.1619 23.2694L15.2869 20.4019L13.3494 22.2037C13.2581 22.3229 13.1409 22.4198 13.0066 22.487C12.8724 22.554 12.7245 22.5897 12.5744 22.5912L12.8456 18.7162L20.0144 12.2256C20.3437 11.9544 20.0144 11.7994 19.5494 12.0706L10.7531 17.5925L6.87812 16.3912C6.045 16.1394 6.02562 15.5581 7.0525 15.1706L21.9906 9.35812C22.7269 9.14499 23.3469 9.57124 23.1144 10.6175Z" fill="url(#paint0_linear_254_169)"/>
<defs>
<linearGradient id="paint0_linear_254_169" x1="15.5" y1="0" x2="15.5" y2="31" gradientUnits="userSpaceOnUse">
<stop stop-color="#D799F3" stop-opacity="0"/>
<stop offset="0.54375" stop-color="#D799F3"/>
</linearGradient>
</defs>
</svg>
