<svg width="41" height="31" viewBox="0 0 41 31" fill="none" xmlns="http://www.w3.org/2000/svg">
<path fill-rule="evenodd" clip-rule="evenodd" d="M41 31V0H0V31H41ZM35.1224 24.6456V30.6768H6.34096V24.9688H6.3903L6.53601 24.9196L17.3408 16.1085L20.6095 18.9134L23.5121 16.3311L35.1224 24.6456ZM35.1224 23.5792L24.1211 15.7853L35.1224 6.13043V23.5792ZM33.2937 0.322427L31.8049 1.76189L31.098 2.45818L30.4397 3.15147L29.7565 3.79697L29.1228 4.44256L28.5131 5.03817L27.9511 5.63379L27.3659 6.18024L26.8292 6.72669L25.8294 7.74395L24.8772 8.66199L24.4394 9.08428L24.0485 9.50584L23.6345 9.85403L23.2675 10.2007L22.61 10.847L22.2924 11.1195L22.0241 11.3934L21.7558 11.6145L21.5353 11.8642L21.1213 12.2123L20.9509 12.335L20.8284 12.4849L20.6827 12.559L20.5847 12.6589L20.4629 12.7573L8.07178 0.273186L33.2937 0.322427ZM16.7071 15.5621L6.34096 23.9508L6.36487 6.65177L16.7071 15.5621Z" fill="url(#paint0_linear_254_171)"/>
<defs>
<linearGradient id="paint0_linear_254_171" x1="20.5" y1="0" x2="20.5" y2="31" gradientUnits="userSpaceOnUse">
<stop stop-color="#D799F3" stop-opacity="0"/>
<stop offset="0.54375" stop-color="#D799F3"/>
</linearGradient>
</defs>
</svg>
