<svg width="81" height="74" viewBox="0 0 81 74" fill="none" xmlns="http://www.w3.org/2000/svg">
<path d="M41.1363 37.8318C40.8331 38.1483 40.507 38.4554 40.161 38.7533M41.1363 37.8318L70.8852 36.691M41.1363 37.8318C42.6835 36.217 43.8548 34.0137 44.7412 31.6389M20.491 46.6324C20.491 46.6324 25.4263 45.7565 30.7324 43.8172M55.7669 26.0978V72.0561M62.2694 72.545L62.9197 31.6389H44.7412M70.0724 35.8762L69.4221 70.1004M75.2744 40.4394L74.6241 64.8853L47.964 67.9818L47.4763 16.8083C47.4763 16.8083 47.3642 20.8583 46.4114 25.6089M40.161 38.7533L41.4615 62.7667L78.6882 59.0183M40.161 38.7533C38.5383 40.1503 36.4796 41.3444 34.3087 42.3489M34.3087 42.3489L35.7718 57.0626L79.9887 52.6623M34.3087 42.3489C33.1323 42.8933 31.923 43.382 30.7324 43.8172M27.8063 50.7067L79.501 47.1213M30.7324 43.8172L76.4123 41.5802M44.7412 31.6389C45.477 29.6675 46.0165 27.578 46.4114 25.6089M46.4114 25.6089H55.7669" stroke="#4C4C4C" stroke-width="2"/>
<path d="M5.86035 44.6767C5.86035 44.6767 14.0231 44.5043 18.8653 46.1434C31.3826 50.3807 35.4466 58.6924 45.3629 66.841C53.4737 73.5059 64.131 74.8777 72.1857 68.1448C80.1639 61.4758 82.9148 48.588 76.2497 41.4172C69.5847 34.2464 62.2694 31.6389 53.3285 23.9792C45.5516 17.3166 40.6486 0.999989 40.6486 0.999989" stroke="#4C4C4C" stroke-width="2"/>
<path d="M12.2003 19.9048C16.3113 20.3832 22.1165 23.8162 22.1165 23.8162C22.1165 23.8162 24.591 21.9462 26.3432 22.1864C27.9307 22.4041 30.3881 22.9916 29.757 24.4681C29.2693 25.6089 27.756 26.2135 27.6437 27.7275C27.5361 29.1776 29.5503 29.9169 28.7816 31.15C27.9688 32.4537 25.6929 32.6167 24.2299 31.9648C22.7668 31.3129 22.1492 30.1055 20.8161 28.7054C20.8161 28.7054 17.4886 29.0764 15.1264 29.0313C11.0775 28.9541 5.37266 26.9127 5.37266 26.9127C5.37266 26.9127 2.82697 25.9757 1.63373 24.794C0.856692 24.0245 0.0975716 23.4407 0.00811117 22.3494C-0.12798 20.6893 1.47117 20.0678 3.09679 19.5789C6.24575 18.6318 12.2003 19.9048 12.2003 19.9048Z" fill="#4C4C4C"/>
<path d="M25.5449 8.53408C29.4922 9.7811 34.5475 14.2501 34.5475 14.2501C34.5475 14.2501 37.3293 12.8815 39.0048 13.4487C40.5229 13.9626 42.8257 15.0042 41.9282 16.3348C41.2346 17.363 39.6347 17.6707 39.2396 19.1362C38.8612 20.54 40.7002 21.6468 39.7133 22.7124C38.6698 23.8391 36.4041 23.5689 35.09 22.6521C33.7758 21.7353 33.3964 20.4328 32.3506 18.8057C32.3506 18.8057 29.013 18.5409 26.7017 18.05C22.74 17.2087 17.5215 14.1253 17.5215 14.1253C17.5215 14.1253 15.1978 12.7238 14.2483 11.3377C13.6299 10.4351 12.9942 9.7183 13.1117 8.62966C13.2903 6.97357 14.9777 6.66559 16.6661 6.49281C19.9367 6.1581 25.5449 8.53408 25.5449 8.53408Z" fill="#4C4C4C"/>
<ellipse cx="4.55162" cy="21.5346" rx="0.650248" ry="0.651891" fill="white"/>
<ellipse cx="16.9065" cy="8.49675" rx="0.650248" ry="0.651891" fill="#FFFEFE"/>
</svg>
