<svg width="479" height="79" viewBox="0 0 479 79" fill="none" xmlns="http://www.w3.org/2000/svg">
<path d="M87.8207 14.2771C85.9877 14.6499 65.3246 16.1103 68.824 19.9434C72.3234 23.7765 88.4873 40.4422 88.4873 40.4422C88.4873 40.4422 65.6578 59.7744 66.6577 60.6077C69.1572 63.9408 84.6546 66.4407 84.6546 66.4407C84.6546 66.4407 88.0587 68.1697 89.6537 69.9405C90.8865 71.3091 91.6575 72.1663 92.1533 73.9403C92.6263 75.6326 92.1533 78.44 92.1533 78.44C92.1533 78.44 96.1526 76.2734 97.3191 71.7737C98.6522 68.7739 99.1521 64.9408 99.1521 64.9408C99.1521 64.9408 104.318 63.6075 108.984 59.1078C114.15 55.108 116.816 46.2752 116.816 46.2752C117.982 48.6084 118.149 48.9417 121.482 52.6082C124.814 56.2746 128.48 57.1079 129.98 57.2746C131.48 57.4412 135.313 57.9412 135.813 56.9412C136.312 55.9413 129.314 43.6087 129.48 40.4422C129.647 37.2757 130.48 36.4424 131.313 34.4426C132.146 32.4427 134.445 30.3793 136.646 27.9429C140.194 24.0145 147.644 19.9434 146.477 18.6102C145.311 17.2769 140.712 16.9709 136.979 17.2769C133.02 17.6013 130.822 18.5801 127.314 20.4434C122.068 23.2303 116.149 30.7761 116.149 30.7761C116.149 30.7761 111.597 22.9317 107.151 19.4434C105.674 18.2847 103.151 16.7769 103.151 16.7769C103.151 16.7769 102.868 14.9651 103.151 13.9438C103.434 12.9224 103.651 12.2772 104.318 10.444C104.815 7.6108 105.484 5.77757 104.651 5.11094C103.818 4.44431 98.4856 6.94417 95.4861 8.27742C92.4866 9.61068 87.8207 14.2771 87.8207 14.2771Z" fill="url(#paint0_linear_6_24)"/>
<path d="M90.3058 23.4459C90.1444 21.6175 89.0723 20.7464 87.5618 20.6203C85.9125 20.4826 84.5073 21.7515 84.3334 23.4459C84.1413 25.3178 86.2704 26.7112 87.5618 26.6039C89.2594 26.4629 90.4672 25.2742 90.3058 23.4459Z" fill="white"/>
<path d="M27.9885 23.4554C26.7787 23.7015 13.1412 24.6653 15.4508 27.1951C17.7604 29.7249 28.4284 40.7242 28.4284 40.7242C28.4284 40.7242 13.3612 53.4832 14.0211 54.0332C15.6708 56.233 25.8988 57.8829 25.8988 57.8829C25.8988 57.8829 28.1455 59.0241 29.1982 60.1928C30.0118 61.096 30.5207 61.6618 30.8479 62.8326C31.1601 63.9495 30.8479 65.8024 30.8479 65.8024C30.8479 65.8024 33.4874 64.3725 34.2573 61.4027C35.1371 59.4228 35.4671 56.893 35.4671 56.893C35.4671 56.893 38.8764 56.0131 41.9558 53.0433C45.3652 50.4035 47.1249 44.5739 47.1249 44.5739C47.8947 46.1138 48.0047 46.3338 50.2043 48.7536C52.4039 51.1734 54.8234 51.7234 55.8133 51.8334C56.8031 51.9434 59.3326 52.2733 59.6625 51.6134C59.9925 50.9534 55.3733 42.814 55.4833 40.7242C55.5933 38.6343 56.1432 38.0843 56.6931 36.7644C57.243 35.4445 58.7599 34.0827 60.2124 32.4748C62.5545 29.882 67.4711 27.1951 66.7012 26.3152C65.9314 25.4353 62.8963 25.2333 60.4324 25.4353C57.8198 25.6494 56.3686 26.2953 54.0536 27.5251C50.591 29.3645 46.685 34.3446 46.685 34.3446C46.685 34.3446 43.6803 29.1674 40.7461 26.8652C39.7714 26.1004 38.1066 25.1053 38.1066 25.1053C38.1066 25.1053 37.9198 23.9095 38.1066 23.2354C38.2934 22.5613 38.4365 22.1355 38.8764 20.9256C39.2044 19.0557 39.6463 17.8458 39.0964 17.4058C38.5465 16.9659 35.0271 18.6157 33.0475 19.4957C31.0679 20.3756 27.9885 23.4554 27.9885 23.4554Z" fill="url(#paint1_linear_6_24)"/>
<path d="M28.9798 29.148C28.8733 27.9413 28.1657 27.3663 27.1687 27.2831C26.0802 27.1922 25.1528 28.0297 25.0381 29.148C24.9113 30.3835 26.3165 31.303 27.1687 31.2323C28.2892 31.1392 29.0863 30.3547 28.9798 29.148Z" fill="white"/>
<path d="M161.021 47C160.208 47 159.625 46.6643 159.272 45.993C158.919 45.3217 158.883 44.668 159.166 44.032L174.748 7.03799C175.137 6.08399 175.808 5.60699 176.762 5.60699C177.681 5.60699 178.334 6.08399 178.723 7.03799L194.358 44.085C194.676 44.7563 194.623 45.41 194.199 46.046C193.81 46.682 193.245 47 192.503 47C191.549 47 190.895 46.576 190.542 45.728L187.044 37.142H166.48L162.929 45.728C162.752 46.152 162.487 46.47 162.134 46.682C161.816 46.894 161.445 47 161.021 47ZM167.964 33.591H185.56L176.762 12.338L167.964 33.591ZM201.997 47C201.396 47 200.919 46.8233 200.566 46.47C200.212 46.0813 200.036 45.5867 200.036 44.986V20.076C200.036 19.44 200.212 18.9453 200.566 18.592C200.919 18.2033 201.396 18.009 201.997 18.009C202.633 18.009 203.127 18.2033 203.481 18.592C203.869 18.9453 204.064 19.44 204.064 20.076V30.57H208.781L219.222 18.645C219.575 18.2563 220.017 18.0443 220.547 18.009C221.077 17.9737 221.536 18.115 221.925 18.433C222.349 18.8217 222.578 19.2633 222.614 19.758C222.649 20.2173 222.49 20.659 222.137 21.083L212.173 32.319L222.667 43.873C223.02 44.2617 223.197 44.7033 223.197 45.198C223.197 45.6573 222.985 46.0813 222.561 46.47C222.207 46.8233 221.73 47 221.13 47C220.564 47 220.105 46.8057 219.752 46.417L208.728 34.28H204.064V44.986C204.064 45.5867 203.869 46.0813 203.481 46.47C203.127 46.8233 202.633 47 201.997 47ZM231.863 47C231.227 47 230.715 46.8233 230.326 46.47C229.973 46.0813 229.796 45.569 229.796 44.933V20.023C229.832 19.4223 230.026 18.9453 230.379 18.592C230.768 18.2033 231.263 18.009 231.863 18.009H231.916H244.848C247.286 18.009 249.283 18.7157 250.837 20.129C252.427 21.5423 253.222 23.362 253.222 25.588C253.222 27.1073 252.869 28.3793 252.162 29.404C251.456 30.3933 250.519 31.1353 249.353 31.63C250.943 32.2307 252.198 33.167 253.116 34.439C254.035 35.6757 254.494 37.1067 254.494 38.732C254.494 40.3573 254.088 41.7883 253.275 43.025C252.498 44.2617 251.385 45.2333 249.936 45.94C248.523 46.6467 246.898 47 245.06 47H231.863ZM244.848 21.719H233.877V30.146H245.06C246.297 30.146 247.304 29.7397 248.081 28.927C248.859 28.1143 249.247 27.072 249.247 25.8C249.247 24.6693 248.823 23.7153 247.975 22.938C247.163 22.1253 246.12 21.719 244.848 21.719ZM233.877 43.237H245.06C246.65 43.237 247.958 42.8307 248.982 42.018C250.007 41.2053 250.519 40.0393 250.519 38.52C250.519 36.93 250.007 35.7287 248.982 34.916C247.958 34.068 246.65 33.644 245.06 33.644H233.877V43.237ZM274.193 47.265C271.473 47.265 269.035 46.629 266.879 45.357C264.724 44.0497 263.01 42.283 261.738 40.057C260.502 37.831 259.883 35.3223 259.883 32.531C259.883 29.7043 260.519 27.178 261.791 24.952C263.099 22.726 264.865 20.977 267.091 19.705C269.317 18.3977 271.826 17.744 274.617 17.744C277.409 17.744 279.9 18.3977 282.09 19.705C284.316 20.977 286.065 22.726 287.337 24.952C288.645 27.178 289.316 29.7043 289.351 32.531V44.986C289.351 45.5867 289.157 46.0813 288.768 46.47C288.38 46.8233 287.885 47 287.284 47C286.684 47 286.189 46.8233 285.8 46.47C285.412 46.0813 285.217 45.5867 285.217 44.986V41.753C284.016 43.449 282.461 44.7917 280.553 45.781C278.645 46.7703 276.525 47.265 274.193 47.265ZM274.617 43.555C276.667 43.555 278.486 43.078 280.076 42.124C281.702 41.17 282.974 39.8627 283.892 38.202C284.846 36.506 285.323 34.6157 285.323 32.531C285.323 30.411 284.846 28.5207 283.892 26.86C282.974 25.1993 281.702 23.892 280.076 22.938C278.486 21.9487 276.667 21.454 274.617 21.454C272.603 21.454 270.784 21.9487 269.158 22.938C267.533 23.892 266.243 25.1993 265.289 26.86C264.335 28.5207 263.858 30.411 263.858 32.531C263.858 34.6157 264.335 36.506 265.289 38.202C266.243 39.8627 267.533 41.17 269.158 42.124C270.784 43.078 272.603 43.555 274.617 43.555Z" fill="#FC6F1C"/>
<path d="M299.356 47C298.72 47 298.207 46.8233 297.819 46.47C297.465 46.0813 297.289 45.569 297.289 44.933V20.076C297.289 19.44 297.465 18.9453 297.819 18.592C298.207 18.2033 298.72 18.009 299.356 18.009C300.274 18.009 301.016 18.433 301.582 19.281L313.295 36.241L325.008 19.281C325.573 18.433 326.315 18.009 327.234 18.009C327.87 18.009 328.364 18.2033 328.718 18.592C329.106 18.9453 329.301 19.44 329.301 20.076V44.933C329.301 45.569 329.106 46.0813 328.718 46.47C328.364 46.8233 327.87 47 327.234 47C326.598 47 326.103 46.8233 325.75 46.47C325.396 46.0813 325.22 45.569 325.22 44.933V25.111L315.203 39.527C314.637 40.3397 313.984 40.746 313.242 40.746C312.5 40.746 311.864 40.3397 311.334 39.527L301.37 25.27V44.933C301.37 46.311 300.698 47 299.356 47ZM351.623 47.265C348.902 47.265 346.464 46.629 344.309 45.357C342.154 44.0497 340.44 42.283 339.168 40.057C337.931 37.831 337.313 35.3223 337.313 32.531C337.313 29.7043 337.949 27.178 339.221 24.952C340.528 22.726 342.295 20.977 344.521 19.705C346.747 18.3977 349.256 17.744 352.047 17.744C354.838 17.744 357.329 18.3977 359.52 19.705C361.746 20.977 363.495 22.726 364.767 24.952C366.074 27.178 366.746 29.7043 366.781 32.531V44.986C366.781 45.5867 366.587 46.0813 366.198 46.47C365.809 46.8233 365.315 47 364.714 47C364.113 47 363.619 46.8233 363.23 46.47C362.841 46.0813 362.647 45.5867 362.647 44.986V41.753C361.446 43.449 359.891 44.7917 357.983 45.781C356.075 46.7703 353.955 47.265 351.623 47.265ZM352.047 43.555C354.096 43.555 355.916 43.078 357.506 42.124C359.131 41.17 360.403 39.8627 361.322 38.202C362.276 36.506 362.753 34.6157 362.753 32.531C362.753 30.411 362.276 28.5207 361.322 26.86C360.403 25.1993 359.131 23.892 357.506 22.938C355.916 21.9487 354.096 21.454 352.047 21.454C350.033 21.454 348.213 21.9487 346.588 22.938C344.963 23.892 343.673 25.1993 342.719 26.86C341.765 28.5207 341.288 30.411 341.288 32.531C341.288 34.6157 341.765 36.506 342.719 38.202C343.673 39.8627 344.963 41.17 346.588 42.124C348.213 43.078 350.033 43.555 352.047 43.555ZM376.785 59.402C376.149 59.402 375.637 59.2077 375.248 58.819C374.895 58.4657 374.718 57.971 374.718 57.335V32.319C374.754 29.563 375.407 27.0897 376.679 24.899C377.987 22.673 379.736 20.924 381.926 19.652C384.152 18.38 386.643 17.744 389.399 17.744C392.226 17.744 394.752 18.3977 396.978 19.705C399.204 20.977 400.953 22.726 402.225 24.952C403.533 27.178 404.186 29.7043 404.186 32.531C404.186 35.3223 403.55 37.831 402.278 40.057C401.042 42.283 399.346 44.0497 397.19 45.357C395.035 46.629 392.597 47.265 389.876 47.265C387.509 47.265 385.354 46.7703 383.41 45.781C381.502 44.7563 379.965 43.4137 378.799 41.753V57.335C378.799 57.971 378.605 58.4657 378.216 58.819C377.863 59.2077 377.386 59.402 376.785 59.402ZM389.399 43.555C391.449 43.555 393.286 43.078 394.911 42.124C396.537 41.17 397.809 39.8627 398.727 38.202C399.681 36.506 400.158 34.6157 400.158 32.531C400.158 30.411 399.681 28.5207 398.727 26.86C397.809 25.1993 396.537 23.892 394.911 22.938C393.286 21.9487 391.449 21.454 389.399 21.454C387.385 21.454 385.566 21.9487 383.94 22.938C382.315 23.892 381.043 25.1993 380.124 26.86C379.206 28.5207 378.746 30.411 378.746 32.531C378.746 34.6157 379.206 36.506 380.124 38.202C381.043 39.8627 382.315 41.17 383.94 42.124C385.566 43.078 387.385 43.555 389.399 43.555ZM424.805 47.318C422.296 47.318 420.053 46.8057 418.074 45.781C416.095 44.721 414.523 43.184 413.357 41.17C412.226 39.156 411.661 36.7003 411.661 33.803V20.023C411.661 19.4577 411.855 18.9807 412.244 18.592C412.633 18.2033 413.11 18.009 413.675 18.009C414.276 18.009 414.77 18.2033 415.159 18.592C415.548 18.9807 415.742 19.4577 415.742 20.023V33.803C415.742 37.0537 416.643 39.474 418.445 41.064C420.247 42.654 422.508 43.449 425.229 43.449C426.96 43.449 428.515 43.1133 429.893 42.442C431.306 41.7707 432.419 40.852 433.232 39.686C434.045 38.52 434.451 37.195 434.451 35.711V20.023C434.451 19.4223 434.628 18.9453 434.981 18.592C435.37 18.2033 435.864 18.009 436.465 18.009C437.066 18.009 437.56 18.2033 437.949 18.592C438.338 18.9453 438.532 19.4223 438.532 20.023V44.933C438.532 45.569 438.338 46.0813 437.949 46.47C437.56 46.8233 437.066 47 436.465 47C435.864 47 435.37 46.8233 434.981 46.47C434.628 46.0813 434.451 45.569 434.451 44.933V43.131C433.285 44.4383 431.872 45.463 430.211 46.205C428.55 46.947 426.748 47.318 424.805 47.318ZM447.37 46.47C446.946 46.0813 446.734 45.6573 446.734 45.198C446.769 44.7387 446.946 44.297 447.264 43.873L453.518 35.976C451.681 35.4107 450.214 34.386 449.119 32.902C448.024 31.3827 447.476 29.5807 447.476 27.496C447.476 25.6587 447.9 24.0333 448.748 22.62C449.631 21.1713 450.85 20.0407 452.405 19.228C453.96 18.4153 455.744 18.009 457.758 18.009H467.192C467.828 18.009 468.323 18.2033 468.676 18.592C469.065 18.9453 469.259 19.44 469.259 20.076V44.986C469.224 45.5867 469.012 46.0813 468.623 46.47C468.27 46.8233 467.793 47 467.192 47C466.627 47 466.15 46.8233 465.761 46.47C465.408 46.0813 465.231 45.569 465.231 44.933V36.983H457.917L450.391 46.258C449.967 46.788 449.437 47.0353 448.801 47C448.2 47 447.723 46.8233 447.37 46.47ZM457.758 33.485H465.231V21.772H457.758C455.956 21.772 454.454 22.302 453.253 23.362C452.052 24.3867 451.451 25.7647 451.451 27.496C451.451 29.3687 452.052 30.835 453.253 31.895C454.454 32.955 455.956 33.485 457.758 33.485ZM159.39 68C159.283 68 159.19 67.9633 159.11 67.89C159.037 67.81 159 67.7167 159 67.61V60.58C159 60.4667 159.037 60.3733 159.11 60.3C159.19 60.2267 159.283 60.19 159.39 60.19C159.55 60.19 159.667 60.2567 159.74 60.39L162.94 66.75L166.08 60.39C166.16 60.2567 166.277 60.19 166.43 60.19C166.537 60.19 166.627 60.2267 166.7 60.3C166.773 60.3733 166.81 60.4667 166.81 60.58V67.61C166.81 67.7167 166.773 67.81 166.7 67.89C166.627 67.9633 166.537 68 166.43 68C166.317 68 166.22 67.9633 166.14 67.89C166.067 67.81 166.03 67.7167 166.03 67.61V61.95L163.25 67.63C163.177 67.7567 163.063 67.82 162.91 67.82C162.743 67.82 162.623 67.74 162.55 67.58L159.78 62.04V67.61C159.78 67.7167 159.74 67.81 159.66 67.89C159.587 67.9633 159.497 68 159.39 68ZM168.384 68C168.231 68 168.121 67.9367 168.054 67.81C167.988 67.6833 167.981 67.56 168.034 67.44L170.974 60.46C171.048 60.28 171.174 60.19 171.354 60.19C171.528 60.19 171.651 60.28 171.724 60.46L174.674 67.45C174.734 67.5767 174.724 67.7 174.644 67.82C174.571 67.94 174.464 68 174.324 68C174.144 68 174.021 67.92 173.954 67.76L173.294 66.14H169.414L168.744 67.76C168.711 67.84 168.661 67.9 168.594 67.94C168.534 67.98 168.464 68 168.384 68ZM169.694 65.47H173.014L171.354 61.46L169.694 65.47ZM176.236 68C176.129 68 176.036 67.9633 175.956 67.89C175.882 67.81 175.846 67.7167 175.846 67.61V60.58C175.846 60.4667 175.882 60.3733 175.956 60.3C176.029 60.2267 176.122 60.19 176.236 60.19H180.426C180.532 60.19 180.622 60.2267 180.696 60.3C180.776 60.3667 180.816 60.4567 180.816 60.57C180.816 60.67 180.776 60.7567 180.696 60.83C180.622 60.9033 180.532 60.94 180.426 60.94H176.626V67.61C176.626 67.7167 176.586 67.81 176.506 67.89C176.432 67.9633 176.342 68 176.236 68ZM181.539 68C181.385 68 181.275 67.9367 181.209 67.81C181.142 67.6833 181.135 67.56 181.189 67.44L184.129 60.46C184.202 60.28 184.329 60.19 184.509 60.19C184.682 60.19 184.805 60.28 184.879 60.46L187.829 67.45C187.889 67.5767 187.879 67.7 187.799 67.82C187.725 67.94 187.619 68 187.479 68C187.299 68 187.175 67.92 187.109 67.76L186.449 66.14H182.569L181.899 67.76C181.865 67.84 181.815 67.9 181.749 67.94C181.689 67.98 181.619 68 181.539 68ZM182.849 65.47H186.169L184.509 61.46L182.849 65.47ZM191.12 68.1C190.607 68.1 190.12 68.01 189.66 67.83C189.2 67.6433 188.847 67.3833 188.6 67.05C188.56 66.9633 188.543 66.8733 188.55 66.78C188.557 66.68 188.6 66.5967 188.68 66.53C188.76 66.47 188.847 66.4467 188.94 66.46C189.04 66.4733 189.123 66.5233 189.19 66.61C189.41 66.8433 189.687 67.03 190.02 67.17C190.353 67.3033 190.72 67.37 191.12 67.37C191.667 67.37 192.117 67.23 192.47 66.95C192.823 66.6633 193 66.27 193 65.77C193 65.2767 192.85 64.8933 192.55 64.62C192.257 64.3467 191.877 64.21 191.41 64.21H190.79C190.683 64.21 190.597 64.18 190.53 64.12C190.463 64.0533 190.43 63.97 190.43 63.87C190.43 63.7633 190.463 63.68 190.53 63.62C190.597 63.5533 190.68 63.52 190.78 63.52H191.34C191.72 63.52 192.033 63.3967 192.28 63.15C192.533 62.9033 192.66 62.56 192.66 62.12C192.66 61.6867 192.51 61.3633 192.21 61.15C191.91 60.93 191.523 60.82 191.05 60.82C190.697 60.82 190.377 60.8867 190.09 61.02C189.803 61.1533 189.57 61.34 189.39 61.58C189.317 61.68 189.23 61.7433 189.13 61.77C189.037 61.7967 188.943 61.78 188.85 61.72C188.763 61.6667 188.707 61.5933 188.68 61.5C188.66 61.4 188.683 61.3067 188.75 61.22C188.997 60.8933 189.307 60.6267 189.68 60.42C190.06 60.2067 190.517 60.1 191.05 60.1C191.517 60.1 191.927 60.1867 192.28 60.36C192.64 60.5267 192.92 60.76 193.12 61.06C193.327 61.36 193.43 61.7 193.43 62.08C193.43 62.5 193.31 62.8633 193.07 63.17C192.83 63.47 192.55 63.6867 192.23 63.82C192.497 63.9 192.747 64.03 192.98 64.21C193.213 64.3833 193.4 64.6033 193.54 64.87C193.687 65.13 193.76 65.4367 193.76 65.79C193.76 66.2367 193.647 66.6333 193.42 66.98C193.193 67.3267 192.88 67.6 192.48 67.8C192.087 68 191.633 68.1 191.12 68.1ZM195.767 68C195.661 68 195.567 67.9633 195.487 67.89C195.407 67.8167 195.367 67.7233 195.367 67.61V60.58C195.367 60.4667 195.407 60.3733 195.487 60.3C195.567 60.2267 195.661 60.19 195.767 60.19C195.881 60.19 195.971 60.2267 196.037 60.3C196.111 60.3733 196.147 60.4667 196.147 60.58V66.72L201.137 60.33C201.211 60.2367 201.311 60.19 201.437 60.19C201.551 60.19 201.644 60.2267 201.717 60.3C201.791 60.3733 201.827 60.4667 201.827 60.58V67.61C201.827 67.7233 201.791 67.8167 201.717 67.89C201.644 67.9633 201.551 68 201.437 68C201.324 68 201.231 67.9633 201.157 67.89C201.084 67.8167 201.047 67.7233 201.047 67.61V61.48L196.057 67.87C195.991 67.9567 195.894 68 195.767 68ZM204.214 68C204.101 68 204.008 67.9633 203.934 67.89C203.861 67.8167 203.824 67.7233 203.824 67.61V60.58C203.824 60.4667 203.861 60.3733 203.934 60.3C204.008 60.2267 204.101 60.19 204.214 60.19C204.328 60.19 204.421 60.2267 204.494 60.3C204.568 60.3733 204.604 60.4667 204.604 60.58V63.7H209.484V60.58C209.484 60.4667 209.521 60.3733 209.594 60.3C209.668 60.2267 209.761 60.19 209.874 60.19C209.988 60.19 210.081 60.2267 210.154 60.3C210.228 60.3733 210.264 60.4667 210.264 60.58V67.61C210.264 67.7233 210.228 67.8167 210.154 67.89C210.081 67.9633 209.988 68 209.874 68C209.761 68 209.668 67.9633 209.594 67.89C209.521 67.8167 209.484 67.7233 209.484 67.61V64.4H204.604V67.61C204.604 67.7233 204.568 67.8167 204.494 67.89C204.421 67.9633 204.328 68 204.214 68ZM214.761 68C214.608 68 214.498 67.9367 214.431 67.81C214.365 67.6833 214.358 67.56 214.411 67.44L217.351 60.46C217.425 60.28 217.551 60.19 217.731 60.19C217.905 60.19 218.028 60.28 218.101 60.46L221.051 67.45C221.111 67.5767 221.101 67.7 221.021 67.82C220.948 67.94 220.841 68 220.701 68C220.521 68 220.398 67.92 220.331 67.76L219.671 66.14H215.791L215.121 67.76C215.088 67.84 215.038 67.9 214.971 67.94C214.911 67.98 214.841 68 214.761 68ZM216.071 65.47H219.391L217.731 61.46L216.071 65.47ZM222.613 68C222.499 68 222.406 67.9633 222.333 67.89C222.259 67.8167 222.223 67.7233 222.223 67.61V60.58C222.223 60.4667 222.259 60.3733 222.333 60.3C222.406 60.2267 222.499 60.19 222.613 60.19C222.726 60.19 222.819 60.2267 222.893 60.3C222.966 60.3733 223.003 60.4667 223.003 60.58V63.7H224.133L226.853 60.31C226.926 60.23 227.016 60.19 227.123 60.19C227.229 60.1833 227.319 60.2167 227.393 60.29C227.553 60.4433 227.556 60.6133 227.403 60.8L224.813 63.99L227.693 67.38C227.839 67.5533 227.826 67.7267 227.653 67.9C227.586 67.9733 227.496 68.0067 227.383 68C227.269 68 227.179 67.96 227.113 67.88L224.183 64.4H223.003V67.61C223.003 67.7233 222.966 67.8167 222.893 67.89C222.819 67.9633 222.726 68 222.613 68ZM229.528 68C229.401 68 229.295 67.9667 229.208 67.9C229.128 67.8267 229.088 67.73 229.088 67.61V60.58C229.088 60.4667 229.125 60.3733 229.198 60.3C229.271 60.2267 229.365 60.19 229.478 60.19H231.908C232.308 60.19 232.668 60.2767 232.988 60.45C233.315 60.6167 233.571 60.8467 233.758 61.14C233.951 61.4333 234.048 61.7733 234.048 62.16C234.048 62.52 233.951 62.84 233.758 63.12C233.565 63.4 233.311 63.6133 232.998 63.76C233.445 63.88 233.805 64.1067 234.078 64.44C234.351 64.7667 234.488 65.1833 234.488 65.69C234.488 66.1433 234.385 66.5433 234.178 66.89C233.971 67.2367 233.685 67.51 233.318 67.71C232.958 67.9033 232.545 68 232.078 68H229.528ZM229.868 63.45H231.908C232.308 63.45 232.638 63.3367 232.898 63.11C233.158 62.8833 233.288 62.5667 233.288 62.16C233.288 61.76 233.158 61.4567 232.898 61.25C232.638 61.0433 232.308 60.94 231.908 60.94H229.868V63.45ZM229.868 67.25H232.078C232.558 67.25 232.951 67.11 233.258 66.83C233.565 66.55 233.718 66.17 233.718 65.69C233.718 65.2367 233.565 64.8767 233.258 64.61C232.951 64.3367 232.558 64.2 232.078 64.2H229.868V67.25ZM235.308 68C235.155 68 235.045 67.9367 234.978 67.81C234.912 67.6833 234.905 67.56 234.958 67.44L237.898 60.46C237.972 60.28 238.098 60.19 238.278 60.19C238.452 60.19 238.575 60.28 238.648 60.46L241.598 67.45C241.658 67.5767 241.648 67.7 241.568 67.82C241.495 67.94 241.388 68 241.248 68C241.068 68 240.945 67.92 240.878 67.76L240.218 66.14H236.338L235.668 67.76C235.635 67.84 235.585 67.9 235.518 67.94C235.458 67.98 235.388 68 235.308 68ZM236.618 65.47H239.938L238.278 61.46L236.618 65.47ZM243.16 68C243.046 68 242.953 67.9633 242.88 67.89C242.806 67.8167 242.77 67.7233 242.77 67.61V60.58C242.77 60.4667 242.806 60.3733 242.88 60.3C242.953 60.2267 243.046 60.19 243.16 60.19H245.16C245.653 60.19 246.09 60.3 246.47 60.52C246.85 60.7333 247.146 61.03 247.36 61.41C247.573 61.79 247.68 62.23 247.68 62.73C247.68 63.2167 247.573 63.65 247.36 64.03C247.146 64.4033 246.85 64.7 246.47 64.92C246.09 65.1333 245.653 65.24 245.16 65.24H243.55V67.61C243.55 67.7233 243.513 67.8167 243.44 67.89C243.366 67.9633 243.273 68 243.16 68ZM243.55 64.49H245.16C245.5 64.49 245.803 64.4167 246.07 64.27C246.336 64.1167 246.543 63.9067 246.69 63.64C246.843 63.3733 246.92 63.07 246.92 62.73C246.92 62.3767 246.843 62.0667 246.69 61.8C246.543 61.5333 246.336 61.3233 246.07 61.17C245.803 61.0167 245.5 60.94 245.16 60.94H243.55V64.49ZM249.293 68C249.186 68 249.093 67.9633 249.013 67.89C248.933 67.8167 248.893 67.7233 248.893 67.61V60.58C248.893 60.4667 248.933 60.3733 249.013 60.3C249.093 60.2267 249.186 60.19 249.293 60.19C249.406 60.19 249.496 60.2267 249.563 60.3C249.636 60.3733 249.673 60.4667 249.673 60.58V66.72L254.663 60.33C254.736 60.2367 254.836 60.19 254.963 60.19C255.076 60.19 255.169 60.2267 255.243 60.3C255.316 60.3733 255.353 60.4667 255.353 60.58V67.61C255.353 67.7233 255.316 67.8167 255.243 67.89C255.169 67.9633 255.076 68 254.963 68C254.849 68 254.756 67.9633 254.683 67.89C254.609 67.8167 254.573 67.7233 254.573 67.61V61.48L249.583 67.87C249.516 67.9567 249.419 68 249.293 68ZM258.26 68.08C257.953 68.08 257.656 67.98 257.37 67.78C257.27 67.7133 257.213 67.6333 257.2 67.54C257.186 67.44 257.216 67.3467 257.29 67.26C257.43 67.0733 257.61 67.05 257.83 67.19C257.97 67.2833 258.12 67.33 258.28 67.33C258.48 67.33 258.683 67.24 258.89 67.06C259.096 66.88 259.276 66.6233 259.43 66.29L259.54 66.07L256.4 60.77C256.273 60.55 256.323 60.38 256.55 60.26C256.763 60.1333 256.933 60.18 257.06 60.4L259.88 65.35L262.19 60.43C262.296 60.2033 262.463 60.14 262.69 60.24C262.91 60.34 262.966 60.5033 262.86 60.73L260.1 66.6C259.88 67.0733 259.61 67.44 259.29 67.7C258.97 67.9533 258.626 68.08 258.26 68.08ZM264.761 68C264.654 68 264.561 67.9633 264.481 67.89C264.408 67.81 264.371 67.7167 264.371 67.61V60.58C264.371 60.4667 264.408 60.3733 264.481 60.3C264.561 60.2267 264.654 60.19 264.761 60.19C264.921 60.19 265.038 60.2567 265.111 60.39L268.311 66.75L271.451 60.39C271.531 60.2567 271.648 60.19 271.801 60.19C271.908 60.19 271.998 60.2267 272.071 60.3C272.144 60.3733 272.181 60.4667 272.181 60.58V67.61C272.181 67.7167 272.144 67.81 272.071 67.89C271.998 67.9633 271.908 68 271.801 68C271.688 68 271.591 67.9633 271.511 67.89C271.438 67.81 271.401 67.7167 271.401 67.61V61.95L268.621 67.63C268.548 67.7567 268.434 67.82 268.281 67.82C268.114 67.82 267.994 67.74 267.921 67.58L265.151 62.04V67.61C265.151 67.7167 265.111 67.81 265.031 67.89C264.958 67.9633 264.868 68 264.761 68ZM274.586 68C274.479 68 274.386 67.9633 274.306 67.89C274.226 67.8167 274.186 67.7233 274.186 67.61V60.58C274.186 60.4667 274.226 60.3733 274.306 60.3C274.386 60.2267 274.479 60.19 274.586 60.19C274.699 60.19 274.789 60.2267 274.856 60.3C274.929 60.3733 274.966 60.4667 274.966 60.58V66.72L279.956 60.33C280.029 60.2367 280.129 60.19 280.256 60.19C280.369 60.19 280.462 60.2267 280.536 60.3C280.609 60.3733 280.646 60.4667 280.646 60.58V67.61C280.646 67.7233 280.609 67.8167 280.536 67.89C280.462 67.9633 280.369 68 280.256 68C280.142 68 280.049 67.9633 279.976 67.89C279.902 67.8167 279.866 67.7233 279.866 67.61V61.48L274.876 67.87C274.809 67.9567 274.712 68 274.586 68ZM286.153 68.1C285.613 68.1 285.106 67.9967 284.633 67.79C284.166 67.5833 283.753 67.2967 283.393 66.93C283.039 66.5567 282.763 66.13 282.563 65.65C282.363 65.1633 282.263 64.6433 282.263 64.09C282.263 63.5433 282.359 63.03 282.553 62.55C282.753 62.0633 283.029 61.6367 283.383 61.27C283.743 60.9033 284.156 60.6167 284.623 60.41C285.096 60.1967 285.606 60.09 286.153 60.09C286.633 60.09 287.069 60.16 287.463 60.3C287.856 60.44 288.236 60.6633 288.603 60.97C288.689 61.0367 288.726 61.1233 288.713 61.23C288.699 61.33 288.649 61.4 288.563 61.44C288.543 61.52 288.479 61.57 288.373 61.59C288.273 61.61 288.173 61.58 288.073 61.5C287.813 61.2733 287.529 61.1067 287.223 61C286.916 60.8867 286.559 60.83 286.153 60.83C285.719 60.83 285.313 60.9167 284.933 61.09C284.559 61.2633 284.229 61.5 283.943 61.8C283.656 62.1 283.429 62.4467 283.263 62.84C283.103 63.2333 283.023 63.65 283.023 64.09C283.023 64.5433 283.103 64.9667 283.263 65.36C283.429 65.7533 283.656 66.1 283.943 66.4C284.229 66.7 284.559 66.9367 284.933 67.11C285.313 67.2767 285.719 67.36 286.153 67.36C286.873 67.36 287.529 67.1267 288.123 66.66C288.243 66.5667 288.369 66.5533 288.503 66.62C288.643 66.6867 288.713 66.8 288.713 66.96C288.713 67.0667 288.676 67.16 288.603 67.24C288.263 67.5533 287.883 67.7767 287.463 67.91C287.043 68.0367 286.606 68.1 286.153 68.1ZM292.627 68C292.521 68 292.427 67.9633 292.347 67.89C292.274 67.81 292.237 67.7167 292.237 67.61V60.9H289.867C289.761 60.9 289.674 60.8667 289.607 60.8C289.541 60.7333 289.507 60.65 289.507 60.55C289.507 60.4433 289.541 60.3567 289.607 60.29C289.674 60.2233 289.761 60.19 289.867 60.19H295.397C295.504 60.19 295.591 60.2233 295.657 60.29C295.724 60.3567 295.757 60.4433 295.757 60.55C295.757 60.65 295.724 60.7333 295.657 60.8C295.591 60.8667 295.504 60.9 295.397 60.9H293.017V67.61C293.017 67.7167 292.981 67.81 292.907 67.89C292.834 67.9633 292.741 68 292.627 68ZM297.31 68C297.203 68 297.11 67.9633 297.03 67.89C296.95 67.8167 296.91 67.7233 296.91 67.61V60.58C296.91 60.4667 296.95 60.3733 297.03 60.3C297.11 60.2267 297.203 60.19 297.31 60.19C297.423 60.19 297.513 60.2267 297.58 60.3C297.653 60.3733 297.69 60.4667 297.69 60.58V66.72L302.68 60.33C302.753 60.2367 302.853 60.19 302.98 60.19C303.093 60.19 303.187 60.2267 303.26 60.3C303.333 60.3733 303.37 60.4667 303.37 60.58V67.61C303.37 67.7233 303.333 67.8167 303.26 67.89C303.187 67.9633 303.093 68 302.98 68C302.867 68 302.773 67.9633 302.7 67.89C302.627 67.8167 302.59 67.7233 302.59 67.61V61.48L297.6 67.87C297.533 67.9567 297.437 68 297.31 68ZM305.757 68C305.644 68 305.551 67.9633 305.477 67.89C305.404 67.8167 305.367 67.7233 305.367 67.61V60.58C305.367 60.4667 305.404 60.3733 305.477 60.3C305.551 60.2267 305.644 60.19 305.757 60.19C305.871 60.19 305.964 60.2267 306.037 60.3C306.111 60.3733 306.147 60.4667 306.147 60.58V63.7H307.277L309.997 60.31C310.071 60.23 310.161 60.19 310.267 60.19C310.374 60.1833 310.464 60.2167 310.537 60.29C310.697 60.4433 310.701 60.6133 310.547 60.8L307.957 63.99L310.837 67.38C310.984 67.5533 310.971 67.7267 310.797 67.9C310.731 67.9733 310.641 68.0067 310.527 68C310.414 68 310.324 67.96 310.257 67.88L307.327 64.4H306.147V67.61C306.147 67.7233 306.111 67.8167 306.037 67.89C305.964 67.9633 305.871 68 305.757 68ZM312.632 68C312.526 68 312.432 67.9633 312.352 67.89C312.272 67.8167 312.232 67.7233 312.232 67.61V60.58C312.232 60.4667 312.272 60.3733 312.352 60.3C312.432 60.2267 312.526 60.19 312.632 60.19C312.746 60.19 312.836 60.2267 312.902 60.3C312.976 60.3733 313.012 60.4667 313.012 60.58V66.72L318.002 60.33C318.076 60.2367 318.176 60.19 318.302 60.19C318.416 60.19 318.509 60.2267 318.582 60.3C318.656 60.3733 318.692 60.4667 318.692 60.58V67.61C318.692 67.7233 318.656 67.8167 318.582 67.89C318.509 67.9633 318.416 68 318.302 68C318.189 68 318.096 67.9633 318.022 67.89C317.949 67.8167 317.912 67.7233 317.912 67.61V61.48L312.922 67.87C312.856 67.9567 312.759 68 312.632 68Z" fill="#0055BD"/>
<path d="M0 24.1664C0 25.9134 1.41282 27.4127 3.15122 27.3296C4.81248 27.2502 6.30244 25.8359 6.30244 24.1664C6.30244 22.497 4.81248 21.0827 3.15122 21.0033C1.41282 20.9202 0 22.4195 0 24.1664Z" fill="#1D95D1"/>
<path d="M2.65369 34.6657C2.65369 36.5047 4.14086 38.0829 5.97076 37.9954C7.71946 37.9118 9.28783 36.4231 9.28783 34.6657C9.28783 32.9084 7.71946 31.4197 5.97076 31.3361C4.14086 31.2486 2.65369 32.8268 2.65369 34.6657Z" fill="#1D95D1"/>
<path d="M9.95123 40.4968C9.95123 41.5082 10.7692 42.3762 11.7756 42.3281C12.7374 42.2821 13.6 41.4633 13.6 40.4968C13.6 39.5303 12.7374 38.7114 11.7756 38.6655C10.7692 38.6174 9.95123 39.4854 9.95123 40.4968Z" fill="#1D95D1"/>
<defs>
<linearGradient id="paint0_linear_6_24" x1="132.813" y1="57.1079" x2="69.3201" y2="19.1164" gradientUnits="userSpaceOnUse">
<stop offset="0.00625611" stop-color="#0751D6"/>
<stop offset="0.609325" stop-color="#02D0FD"/>
</linearGradient>
<linearGradient id="paint1_linear_6_24" x1="57.6829" y1="51.7234" x2="15.7782" y2="26.6494" gradientUnits="userSpaceOnUse">
<stop offset="0.00625611" stop-color="#EF2001"/>
<stop offset="0.609325" stop-color="#FE8021"/>
</linearGradient>
</defs>
</svg>
