<svg width="1466" height="56" viewBox="0 0 1466 56" fill="none" xmlns="http://www.w3.org/2000/svg">
<g filter="url(#filter0_d_504_60)">
<path fill-rule="evenodd" clip-rule="evenodd" d="M1462 -1.52588e-05V39.1569C1461.74 39.0665 1461.49 38.9759 1461.23 38.8854C1448.57 34.424 1436.01 30.0002 1419 30.0002C1401.84 30.0002 1388.92 34.5002 1376 39.0002C1363.13 43.4818 1350.26 47.9634 1333.21 48H1332.79C1315.74 47.9634 1302.87 43.4818 1290 39.0002C1277.08 34.5002 1264.16 30.0002 1247 30.0002C1229.84 30.0002 1216.92 34.5002 1204 39.0002C1191.13 43.4818 1178.26 47.9634 1161.21 48H1160.79C1143.74 47.9634 1130.87 43.4818 1118 39.0002C1105.08 34.5002 1092.16 30.0002 1075 30.0002C1057.84 30.0002 1044.92 34.5002 1032 39.0002C1019.13 43.4818 1006.26 47.9634 989.211 48H988.79C971.738 47.9634 958.869 43.4818 946 39.0002C933.078 34.5002 920.156 30.0002 903 30.0002C885.843 30.0002 872.922 34.5002 860 39.0002C847.131 43.4818 834.262 47.9634 817.21 48H816.789C799.738 47.9634 786.869 43.4818 774 39.0002C761.078 34.5002 748.156 30.0002 731 30.0002C713.843 30.0002 700.922 34.5002 688 39.0002C675.131 43.4818 662.262 47.9634 645.21 48H644.789C627.738 47.9634 614.869 43.4818 602 39.0002C589.078 34.5002 576.156 30.0002 559 30.0002C541.843 30.0002 528.922 34.5002 516 39.0002C503.131 43.4818 490.262 47.9634 473.21 48H472.789C455.738 47.9634 442.869 43.4818 430 39.0002C417.078 34.5002 404.156 30.0002 387 30.0002C369.844 30.0002 356.922 34.5002 344 39.0002C331.131 43.4818 318.262 47.9634 301.211 48H300.79C283.645 47.9632 270.546 43.4334 257.518 38.9279C244.576 34.4521 231.703 30.0002 215 30.0002C198.269 30.0002 185.381 34.4475 172.417 38.9209C159.378 43.4202 146.262 47.946 129.083 48H128.462C111.411 47.9463 98.4847 43.4681 85.5659 38.9924C72.4676 34.4545 59.3766 29.9192 42 30.0002C26.7196 30.0715 15.2644 33.7291 4 37.7284V-1.52588e-05H1462Z" fill="#CCEFFD"/>
</g>
<defs>
<filter id="filter0_d_504_60" x="0" y="-1.52588e-05" width="1466" height="56" filterUnits="userSpaceOnUse" color-interpolation-filters="sRGB">
<feFlood flood-opacity="0" result="BackgroundImageFix"/>
<feColorMatrix in="SourceAlpha" type="matrix" values="0 0 0 0 0 0 0 0 0 0 0 0 0 0 0 0 0 0 127 0" result="hardAlpha"/>
<feOffset dy="4"/>
<feGaussianBlur stdDeviation="2"/>
<feComposite in2="hardAlpha" operator="out"/>
<feColorMatrix type="matrix" values="0 0 0 0 0.294118 0 0 0 0 0.298039 0 0 0 0 0.298039 0 0 0 1 0"/>
<feBlend mode="normal" in2="BackgroundImageFix" result="effect1_dropShadow_504_60"/>
<feBlend mode="normal" in="SourceGraphic" in2="effect1_dropShadow_504_60" result="shape"/>
</filter>
</defs>
</svg>
