<svg width="1548" height="183" viewBox="0 0 1548 183" fill="none" xmlns="http://www.w3.org/2000/svg">
<g filter="url(#filter0_d_504_59)">
<path fill-rule="evenodd" clip-rule="evenodd" d="M1548 179.001L1548 179.001C1542.92 179.001 1538.24 178.632 1533.84 178.001C1538.24 178.632 1542.92 179.001 1548 179.001ZM1505 157V170.157C1504.74 170.067 1504.49 169.976 1504.23 169.886C1491.57 165.425 1479.01 161.001 1462 161.001C1444.84 161.001 1431.92 165.501 1419 170.001C1406.08 174.501 1393.16 179.001 1376 179.001C1358.84 179.001 1345.92 174.501 1333 170.001C1320.08 165.501 1307.16 161.001 1290 161.001C1272.84 161.001 1259.92 165.501 1247 170.001C1234.08 174.501 1221.16 179.001 1204 179.001C1186.84 179.001 1173.92 174.501 1161 170.001C1148.08 165.501 1135.16 161.001 1118 161.001C1100.84 161.001 1087.92 165.501 1075 170.001C1062.08 174.501 1049.16 179.001 1032 179.001C1014.84 179.001 1001.92 174.501 989 170.001C976.078 165.501 963.156 161.001 946 161.001C928.843 161.001 915.922 165.501 903 170.001C890.078 174.501 877.156 179.001 860 179.001C842.843 179.001 829.922 174.501 817 170.001C804.078 165.501 791.156 161.001 774 161.001C756.843 161.001 743.922 165.501 731 170.001C718.078 174.501 705.156 179.001 688 179.001C670.843 179.001 657.922 174.501 645 170.001C632.078 165.501 619.156 161.001 602 161.001C584.843 161.001 571.922 165.501 559 170.001C546.078 174.501 533.156 179.001 516 179.001C498.843 179.001 485.922 174.501 473 170.001C460.078 165.501 447.156 161.001 430 161.001C412.844 161.001 399.922 165.501 387 170.001C374.078 174.501 361.156 179.001 344 179.001C326.752 179.001 313.6 174.452 300.518 169.928C287.576 165.453 274.703 161.001 258 161.001C241.269 161.001 228.381 165.448 215.417 169.921C202.357 174.428 189.22 178.961 172 179.001C154.682 179.041 141.62 174.516 128.566 169.993C115.468 165.455 102.377 160.92 85 161.001C69.7196 161.072 58.2644 164.73 47 168.729L47 157V4L47 -8.99925H1505V4V157ZM0 179.001C5.84704 179.001 11.142 178.53 16.0552 177.741C11.142 178.53 5.84704 179.001 0 179.001V179.001Z" fill="#DEF4FD"/>
</g>
<defs>
<filter id="filter0_d_504_59" x="0" y="-8.99925" width="1548" height="192" filterUnits="userSpaceOnUse" color-interpolation-filters="sRGB">
<feFlood flood-opacity="0" result="BackgroundImageFix"/>
<feColorMatrix in="SourceAlpha" type="matrix" values="0 0 0 0 0 0 0 0 0 0 0 0 0 0 0 0 0 0 127 0" result="hardAlpha"/>
<feOffset dy="4"/>
<feComposite in2="hardAlpha" operator="out"/>
<feColorMatrix type="matrix" values="0 0 0 0 0.454902 0 0 0 0 0.654902 0 0 0 0 0.792157 0 0 0 1 0"/>
<feBlend mode="normal" in2="BackgroundImageFix" result="effect1_dropShadow_504_59"/>
<feBlend mode="normal" in="SourceGraphic" in2="effect1_dropShadow_504_59" result="shape"/>
</filter>
</defs>
</svg>
