<svg xmlns="http://www.w3.org/2000/svg" viewBox="0 0 571.12 512"><g id="Слой_2" data-name="Слой 2"><g id="Слой_1-2" data-name="Слой 1"><path d="M0,24A23.94,23.94,0,0,1,24,0H69.5a56,56,0,0,1,50.6,32h411a40,40,0,0,1,38.6,50.4l-41,152.3A72.11,72.11,0,0,1,459.2,288H170.7l5.4,28.5A24.09,24.09,0,0,0,199.7,336H488a24,24,0,0,1,0,48H199.7A71.92,71.92,0,0,1,129,325.5L77.4,54.5A8,8,0,0,0,69.5,48H24A23.94,23.94,0,0,1,0,24ZM128,464a48,48,0,1,1,48,48,48,48,0,0,1-48-48Zm336-48a48,48,0,0,1,0,96h0a48,48,0,0,1,0-96ZM252,160a20.06,20.06,0,0,0,20,20H400a20,20,0,0,0,0-40H272A20.06,20.06,0,0,0,252,160Z"/></g></g></svg>