<svg width="82" height="82" viewBox="0 0 82 82" fill="none" xmlns="http://www.w3.org/2000/svg">
<g clip-path="url(#clip0_262_128)">
<path d="M51.401 22.9877L54.001 18.4844M30.601 59.0144L28.001 63.5177M35.6852 21.1622L34.3394 16.1394M46.4522 61.345L47.798 66.3677M22.9877 30.601L18.4844 28.001M59.0144 51.401L63.5177 54.001M61.1612 35.8708L66.184 34.5249M20.9784 46.6377L15.9556 47.9835M34.501 52.2594C28.2832 48.6695 26.1529 40.7188 29.7427 34.501C33.3326 28.2832 41.2832 26.1529 47.501 29.7427C53.7188 33.3325 55.8492 41.2832 52.2594 47.501C48.6695 53.7188 40.7188 55.8492 34.501 52.2594Z" stroke="black" stroke-width="6" stroke-linecap="round" stroke-linejoin="round"/>
</g>
<defs>
<clipPath id="clip0_262_128">
<rect width="60" height="60" fill="white" transform="translate(30.0195 0.0195312) rotate(30)"/>
</clipPath>
</defs>
</svg>
