<svg width="42" height="42" viewBox="0 0 42 42" fill="none" xmlns="http://www.w3.org/2000/svg">
<g clip-path="url(#clip0_262_134)">
<path d="M26.2004 11.9938L27.5004 9.74214M15.8005 30.007L14.5005 32.2586M18.3426 11.081L17.6697 8.56965M23.726 31.1723L24.399 33.6837M11.9939 15.8004L9.74223 14.5004M30.0071 26.2004L32.2587 27.5003M31.0805 18.4353L33.5919 17.7623M10.9892 23.8187L8.47786 24.4916M17.7505 26.6295C14.6416 24.8346 13.5765 20.8593 15.3714 17.7504C17.1663 14.6415 21.1416 13.5764 24.2505 15.3713C27.3593 17.1662 28.4245 21.1415 26.6296 24.2504C24.8347 27.3592 20.8594 28.4244 17.7505 26.6295Z" stroke="black" stroke-width="2.99998" stroke-linecap="round" stroke-linejoin="round"/>
</g>
<defs>
<clipPath id="clip0_262_134">
<rect width="29.9998" height="29.9998" fill="white" transform="translate(15.5098 0.509766) rotate(30)"/>
</clipPath>
</defs>
</svg>
