<svg width="23" height="23" viewBox="0 0 23 23" fill="none" xmlns="http://www.w3.org/2000/svg">
<path d="M21.4282 14.5231C21.4837 14.397 21.3577 14.2691 21.2283 14.3159C17.6423 15.6123 13.5187 14.8473 10.8129 12.1398C8.11963 9.44497 7.35365 5.34346 8.62573 1.76607C8.67822 1.61844 8.53264 1.47505 8.38978 1.53913C8.38014 1.54345 8.37051 1.5478 8.36088 1.55214C6.38219 2.44662 4.62143 3.95544 3.58732 5.85633C2.48185 7.88841 2.11726 10.2419 2.55602 12.5136C2.99478 14.7851 4.20959 16.8333 5.99219 18.3068C7.77479 19.7803 10.0141 20.5877 12.3264 20.5901C14.3147 20.5902 16.2576 19.9949 17.905 18.8808C19.4259 17.8523 20.6308 16.2942 21.3903 14.6083C21.4031 14.58 21.4157 14.5515 21.4282 14.5231Z" stroke="black" stroke-width="3" stroke-linecap="round" stroke-linejoin="round"/>
</svg>
