<svg width="38" height="38" viewBox="0 0 38 38" fill="none" xmlns="http://www.w3.org/2000/svg">
<g clip-path="url(#clip0_262_131)">
<path d="M21.6907 8.95418L22.3637 6.44277M16.3073 29.0454L15.6344 31.5568M13.8644 10.1063L12.5644 7.85463M24.2644 28.1197L25.5644 30.3714M8.9534 16.3081L6.44199 15.6352M29.0447 21.6915L31.5561 22.3645M28.0717 13.9131L30.3234 12.6131M10.0583 24.3132L7.80662 25.6132M17.3167 25.2783C13.8492 24.3492 11.7914 20.785 12.7205 17.3175C13.6496 13.85 17.2138 11.7922 20.6814 12.7213C24.1489 13.6504 26.2067 17.2146 25.2775 20.6821C24.3484 24.1496 20.7842 26.2074 17.3167 25.2783Z" stroke="black" stroke-width="3" stroke-linecap="round" stroke-linejoin="round"/>
</g>
<defs>
<clipPath id="clip0_262_131">
<rect width="30" height="30" fill="white" transform="translate(8.39258 0.628906) rotate(15)"/>
</clipPath>
</defs>
</svg>
