<svg width="45" height="46" viewBox="0 0 45 46" fill="none" xmlns="http://www.w3.org/2000/svg">
<path d="M41.9477 29.9892C42.0587 29.737 41.8068 29.4813 41.5478 29.5748C34.3759 32.1676 26.1288 30.6375 20.7173 25.2226C15.3309 19.8331 13.799 11.6302 16.3431 4.4755C16.4481 4.18024 16.1569 3.89346 15.8712 4.02162C15.8519 4.03027 15.8326 4.03895 15.8134 4.04764C11.8561 5.83658 8.3346 8.85418 6.26641 12.6559C4.0555 16.72 3.32632 21.427 4.20383 25.9702C5.08135 30.5133 7.51092 34.6095 11.0761 37.5565C14.6412 40.5035 19.1198 42.1181 23.7444 42.123C27.721 42.1233 31.6067 40.9326 34.9014 38.7044C37.9432 36.6475 40.3528 33.5314 41.8718 30.1595C41.8974 30.103 41.9226 30.046 41.9477 29.9892Z" stroke="black" stroke-width="5.99992" stroke-linecap="round" stroke-linejoin="round"/>
</svg>
