<svg width="42" height="47" viewBox="0 0 42 47" fill="none" xmlns="http://www.w3.org/2000/svg">
<path d="M21.6763 3.87166C21.404 3.82979 21.2222 4.13929 21.3795 4.36518C25.7402 10.6217 26.3968 18.9838 22.567 25.6124C18.7552 32.2101 11.2283 35.813 3.65894 35.2073C3.34657 35.1823 3.14492 35.5378 3.34266 35.7806C3.356 35.797 3.36938 35.8133 3.38276 35.8297C6.13496 39.1891 9.96117 41.8096 14.1686 42.8234C18.6665 43.9071 23.4018 43.3932 27.5631 41.3697C31.7243 39.3462 35.0521 35.9393 36.9759 31.7328C38.8998 27.5264 39.3003 22.7825 38.1081 18.3143C37.0791 14.4732 34.9233 11.028 31.9183 8.4222C29.1442 6.01644 25.5106 4.49542 21.8605 3.90091C21.7992 3.89083 21.7377 3.88127 21.6763 3.87166Z" stroke="black" stroke-width="5.99992" stroke-linecap="round" stroke-linejoin="round"/>
</svg>
