<svg width="30" height="30" viewBox="0 0 30 30" fill="none" xmlns="http://www.w3.org/2000/svg">
<path d="M22.4584 0.0117188H7.51784C3.37827 0.0117188 0 3.38999 0 7.52956V22.4939C0 26.6097 3.37827 29.9879 7.51784 29.9879H22.4822C26.6217 29.9879 30 26.6097 30 22.4701V7.52956C29.9762 3.38999 26.5979 0.0117188 22.4584 0.0117188ZM17.6051 9.52798H22.6011V10.7175H17.6051V9.52798ZM15.2736 17.3551C15.2736 21.0664 11.6098 21.1854 11.6098 21.1854H8.23156H8.1364H5.70975V8.81426H8.11261H8.20777H11.586C13.4179 8.81426 14.8692 9.86105 14.8692 12.0498C14.8692 14.2385 13.1086 14.3575 13.1086 14.3575C15.4401 14.3337 15.2736 17.3551 15.2736 17.3551ZM24.2427 17.141H18.2236C18.2236 19.52 20.2696 19.3297 20.2696 19.3297C22.1967 19.3297 22.1253 18.0926 22.1253 18.0926H24.1713C24.1713 21.4233 20.1983 21.2806 20.1983 21.2806C15.4401 21.2806 15.7494 16.5938 15.7494 16.5938C15.7494 16.5938 15.7494 11.8833 20.1983 11.8833C24.885 11.8595 24.2427 17.141 24.2427 17.141Z" fill="white" fill-opacity="0.2"/>
</svg>
