<svg width="28" height="28" viewBox="0 0 28 28" fill="none" xmlns="http://www.w3.org/2000/svg">
<g clip-path="url(#clip0_377_1372)">
<path d="M14 0C6.26799 0 0 6.26799 0 14C0 21.732 6.26799 28 14 28C21.732 28 28 21.732 28 14C28 6.26799 21.732 0 14 0ZM14 2.70968C20.2397 2.70968 25.2903 7.75933 25.2903 14C25.2903 20.2397 20.2407 25.2903 14 25.2903C7.76029 25.2903 2.70968 20.2407 2.70968 14C2.70968 7.76029 7.75933 2.70968 14 2.70968ZM21.9147 10.0635L20.6425 8.78099C20.3791 8.51539 19.9502 8.51364 19.6846 8.77715L11.705 16.6926L8.32966 13.2898C8.0662 13.0242 7.63728 13.0225 7.37168 13.2859L6.08915 14.5581C5.82355 14.8216 5.8218 15.2505 6.08531 15.5162L11.21 20.6824C11.4735 20.948 11.9024 20.9498 12.168 20.6862L21.911 11.0215C22.1765 10.758 22.1782 10.3291 21.9147 10.0635Z" fill="#93FF12"/>
</g>
<defs>
<clipPath id="clip0_377_1372">
<rect width="28" height="28" fill="white"/>
</clipPath>
</defs>
</svg>
