<svg width="281" height="41" viewBox="0 0 281 41" fill="none" xmlns="http://www.w3.org/2000/svg">
<g filter="url(#filter0_d_335_404)">
<path fill-rule="evenodd" clip-rule="evenodd" d="M170.674 2.53845C170.75 2.53845 170.824 2.56474 170.882 2.61274L174.565 5.64748C174.639 5.70837 174.681 5.79858 174.681 5.89371V11.8333C174.681 12.0103 174.536 12.1538 174.357 12.1538H171.116C170.937 12.1538 170.792 12.0103 170.792 11.8333V6.06409C170.792 5.88708 170.647 5.74358 170.468 5.74358H159.447C159.268 5.74358 159.123 5.88708 159.123 6.06409V24.6538C159.123 24.8309 159.268 24.9744 159.447 24.9744H170.468C170.647 24.9744 170.792 24.8309 170.792 24.6538V18.8846C170.792 18.7075 170.647 18.5641 170.468 18.5641H167.226C167.047 18.5641 166.902 18.4206 166.902 18.2436V15.6795C166.902 15.5025 167.047 15.359 167.226 15.359H170.792H174.357C174.536 15.359 174.681 15.5025 174.681 15.6795V24.8242C174.681 24.9194 174.639 25.0096 174.565 25.0705L170.882 28.1051C170.824 28.1532 170.75 28.1795 170.674 28.1795H159.24C159.164 28.1795 159.091 28.1532 159.032 28.1051L155.35 25.0705C155.276 25.0096 155.233 24.9194 155.233 24.8242V5.89369C155.233 5.79858 155.276 5.70837 155.35 5.64748L159.032 2.61274C159.091 2.56474 159.164 2.53845 159.24 2.53845H170.674ZM277.434 2.53845C277.255 2.53845 277.11 2.68195 277.11 2.85897V11.8333C277.11 12.0103 276.965 12.1538 276.786 12.1538H269.448C269.372 12.1538 269.299 12.1801 269.241 12.2281L265.558 15.2629C265.484 15.3238 265.441 15.414 265.441 15.5091V24.8242C265.441 24.9194 265.484 25.0096 265.558 25.0705L269.241 28.1051C269.299 28.1532 269.372 28.1795 269.448 28.1795H276.993C277.069 28.1795 277.142 28.1532 277.2 28.1051L280.883 25.0705C280.957 25.0096 281 24.9194 281 24.8242V2.85897C281 2.68195 280.855 2.53845 280.676 2.53845H277.434ZM276.786 24.9744C276.965 24.9744 277.11 24.8309 277.11 24.6538V15.6795C277.11 15.5025 276.965 15.359 276.786 15.359H269.655C269.476 15.359 269.331 15.5025 269.331 15.6795V24.6538C269.331 24.8309 269.476 24.9744 269.655 24.9744H276.786ZM203.206 15.6795C203.206 15.5025 203.351 15.359 203.53 15.359H210.661C210.84 15.359 210.985 15.5025 210.985 15.6795V24.6538C210.985 24.8309 210.84 24.9744 210.661 24.9744H203.53C203.351 24.9744 203.206 24.8309 203.206 24.6538V15.6795ZM210.868 28.1795C210.944 28.1795 211.017 28.1532 211.075 28.1051L214.758 25.0705C214.832 25.0096 214.875 24.9194 214.875 24.8242V15.5091C214.875 15.414 214.832 15.3238 214.758 15.2629L211.075 12.2281C211.017 12.1801 210.944 12.1538 210.868 12.1538H203.323C203.247 12.1538 203.174 12.1801 203.116 12.2281L199.433 15.2629C199.359 15.3238 199.316 15.414 199.316 15.5091V24.8242C199.316 24.9194 199.359 25.0096 199.433 25.0705L203.116 28.1051C203.174 28.1532 203.247 28.1795 203.323 28.1795H210.868ZM243.399 12.4744C243.399 12.2973 243.544 12.1538 243.724 12.1538H247.289H254.951C255.027 12.1538 255.1 12.1801 255.159 12.2281L258.841 15.2629C258.915 15.3238 258.958 15.414 258.958 15.5091V27.859C258.958 28.0361 258.813 28.1795 258.634 28.1795H255.393C255.214 28.1795 255.068 28.0361 255.068 27.859V15.6795C255.068 15.5025 254.923 15.359 254.744 15.359H247.613C247.434 15.359 247.289 15.5025 247.289 15.6795V27.859C247.289 28.0361 247.144 28.1795 246.965 28.1795H243.724C243.544 28.1795 243.399 28.0361 243.399 27.859V12.4744ZM236.917 24.9744L233.027 28.1795H225.247L221.358 24.9744V12.1538H225.247V24.9744H233.027V12.1538H236.917V24.9744ZM184.73 28.1795C184.909 28.1795 185.054 28.0361 185.054 27.859V15.6795C185.054 15.5025 185.199 15.359 185.378 15.359H192.509C192.688 15.359 192.833 15.2155 192.833 15.0385V12.4744C192.833 12.2973 192.688 12.1538 192.509 12.1538H185.171C185.095 12.1538 185.022 12.1801 184.964 12.2281L181.281 15.2629C181.207 15.3238 181.164 15.414 181.164 15.5091V27.859C181.164 28.0361 181.309 28.1795 181.488 28.1795H184.73Z" fill="#93FF12"/>
<path fill-rule="evenodd" clip-rule="evenodd" d="M67.157 2.61274C67.2151 2.56474 67.2884 2.53845 67.364 2.53845H78.7749C78.8506 2.53845 78.9238 2.56474 78.982 2.61274L82.6572 5.64748C82.731 5.70837 82.7737 5.79858 82.7737 5.89371V15.2088C82.7737 15.304 82.731 15.3942 82.6572 15.4551L78.982 18.4898C78.9238 18.5378 78.8506 18.5641 78.7749 18.5641H67.5704C67.3917 18.5641 67.2469 18.7075 67.2469 18.8846V27.859C67.2469 28.0361 67.1021 28.1795 66.9235 28.1795H63.6887C63.5101 28.1795 63.3652 28.0361 63.3652 27.859V5.89371C63.3652 5.79858 63.4079 5.70837 63.4816 5.64748L67.157 2.61274ZM67.5704 15.359C67.3917 15.359 67.2469 15.2155 67.2469 15.0385V6.06409C67.2469 5.88707 67.3917 5.74358 67.5704 5.74358H78.5685C78.7472 5.74358 78.892 5.88707 78.892 6.06409V15.0385C78.892 15.2155 78.7472 15.359 78.5685 15.359H67.5704ZM89.5667 2.53845C89.3879 2.53845 89.2432 2.68195 89.2432 2.85897V5.42307C89.2432 5.60009 89.3879 5.74358 89.5667 5.74358H92.8014C92.9801 5.74358 93.1249 5.88707 93.1249 6.06409V24.8242C93.1249 24.9194 93.1676 25.0096 93.2413 25.0705L96.9166 28.1051C96.9747 28.1532 97.048 28.1795 97.1237 28.1795H100.565C100.744 28.1795 100.888 28.0361 100.888 27.859V25.2949C100.888 25.1178 100.744 24.9744 100.565 24.9744H97.33C97.1513 24.9744 97.0066 24.8309 97.0066 24.6538V5.89369C97.0066 5.79858 96.9639 5.70837 96.8901 5.64748L93.2148 2.61274C93.1567 2.56474 93.0835 2.53845 93.0078 2.53845H89.5667ZM111.357 12.1538C111.281 12.1538 111.208 12.1801 111.15 12.2281L107.474 15.2629C107.4 15.3238 107.358 15.414 107.358 15.5091V24.8242C107.358 24.9194 107.4 25.0096 107.474 25.0705L111.15 28.1051C111.208 28.1532 111.281 28.1795 111.357 28.1795H114.798C114.976 28.1795 115.121 28.0361 115.121 27.859V25.2949C115.121 25.1178 114.976 24.9744 114.798 24.9744H111.563C111.384 24.9744 111.239 24.8309 111.239 24.6538V15.6795C111.239 15.5025 111.384 15.359 111.563 15.359H118.679C118.858 15.359 119.003 15.5025 119.003 15.6795V27.859C119.003 28.0361 119.148 28.1795 119.326 28.1795H122.561C122.74 28.1795 122.885 28.0361 122.885 27.859V15.5091C122.885 15.414 122.842 15.3238 122.768 15.2629L119.093 12.2281C119.035 12.1801 118.961 12.1538 118.886 12.1538H111.357ZM144.557 15.359C144.736 15.359 144.881 15.5025 144.881 15.6795V37.6447C144.881 37.7399 144.838 37.8301 144.764 37.891L141.089 40.9256C141.031 40.9737 140.958 41 140.882 41H133.353C133.277 41 133.204 40.9737 133.146 40.9256L129.652 38.041C129.497 37.913 129.497 37.6768 129.652 37.5487L132.705 35.0279C132.916 34.8538 133.236 35.0022 133.236 35.274V37.4744C133.236 37.6514 133.38 37.7949 133.559 37.7949H140.676C140.854 37.7949 140.999 37.6514 140.999 37.4744V28.5C140.999 28.3229 140.854 28.1795 140.676 28.1795H133.353C133.277 28.1795 133.204 28.1532 133.146 28.1051L129.47 25.0705C129.397 25.0096 129.354 24.9194 129.354 24.8242V15.6795C129.354 15.5025 129.499 15.359 129.677 15.359H132.912C133.091 15.359 133.236 15.5025 133.236 15.6795V24.6538C133.236 24.8309 133.38 24.9744 133.559 24.9744H140.676C140.854 24.9744 140.999 24.8309 140.999 24.6538V15.6795C140.999 15.5025 141.144 15.359 141.323 15.359H144.557Z" fill="#93FF12"/>
<path fill-rule="evenodd" clip-rule="evenodd" d="M6.55154 2.53845C6.47586 2.53845 6.4026 2.56474 6.34445 2.61274L2.66913 5.64748C2.59538 5.70837 2.55273 5.79858 2.55273 5.89369V24.8242C2.55273 24.9194 2.59538 25.0096 2.66913 25.0705L6.34445 28.1051C6.4026 28.1532 6.47586 28.1795 6.55154 28.1795H10.3161H13.3044C13.6069 28.1795 13.7439 27.8046 13.5114 27.6128L10.4061 25.0487C10.3479 25.0006 10.2747 24.9744 10.199 24.9744H6.7579C6.57925 24.9744 6.43443 24.8309 6.43443 24.6538V6.06409C6.43443 5.88708 6.57925 5.74358 6.7579 5.74358H17.756C17.9347 5.74358 18.0795 5.88708 18.0795 6.06409V21.6191C18.0795 21.7143 18.1221 21.8045 18.1959 21.8654L21.4307 24.5362C21.6413 24.7103 21.9612 24.5619 21.9612 24.2901V21.7692V5.89371C21.9612 5.79858 21.9185 5.70837 21.8447 5.64748L18.1695 2.61274C18.1113 2.56474 18.0381 2.53845 17.9624 2.53845H6.55154ZM14.3142 25.0705C14.2404 25.0096 14.1978 24.9194 14.1978 24.8242V22.4535C14.1978 22.1817 14.5177 22.0333 14.7284 22.2074L18.0795 24.9744L21.2748 27.6128C21.5072 27.8046 21.3702 28.1795 21.0678 28.1795H18.1966C18.1209 28.1795 18.0477 28.1532 17.9895 28.1051L14.3142 25.0705ZM32.3124 18.8846C32.3124 18.7075 32.4571 18.5641 32.6359 18.5641H43.634C43.8127 18.5641 43.9575 18.7075 43.9575 18.8846V27.859C43.9575 28.0361 44.1022 28.1795 44.2809 28.1795H47.5157C47.6944 28.1795 47.8391 28.0361 47.8391 27.859V5.89371C47.8391 5.79858 47.7964 5.70837 47.7227 5.64748L44.0474 2.61274C43.9893 2.56474 43.916 2.53845 43.8404 2.53845H32.4295C32.3538 2.53845 32.2805 2.56474 32.2225 2.61274L28.5471 5.64748C28.4734 5.70837 28.4307 5.79858 28.4307 5.89371V27.859C28.4307 28.0361 28.5754 28.1795 28.7542 28.1795H31.9889C32.1676 28.1795 32.3124 28.0361 32.3124 27.859V18.8846ZM32.6359 15.359C32.4571 15.359 32.3124 15.2155 32.3124 15.0385V6.06409C32.3124 5.88708 32.4571 5.74358 32.6359 5.74358H43.634C43.8127 5.74358 43.9575 5.88708 43.9575 6.06409V15.0385C43.9575 15.2155 43.8127 15.359 43.634 15.359H32.6359Z" fill="#93FF12"/>
</g>
<defs>
<filter id="filter0_d_335_404" x="0.552734" y="0.538452" width="280.447" height="40.4615" filterUnits="userSpaceOnUse" color-interpolation-filters="sRGB">
<feFlood flood-opacity="0" result="BackgroundImageFix"/>
<feColorMatrix in="SourceAlpha" type="matrix" values="0 0 0 0 0 0 0 0 0 0 0 0 0 0 0 0 0 0 127 0" result="hardAlpha"/>
<feOffset dx="-2" dy="-2"/>
<feComposite in2="hardAlpha" operator="out"/>
<feColorMatrix type="matrix" values="0 0 0 0 0.6125 0 0 0 0 0 0 0 0 0 0.588 0 0 0 1 0"/>
<feBlend mode="normal" in2="BackgroundImageFix" result="effect1_dropShadow_335_404"/>
<feBlend mode="normal" in="SourceGraphic" in2="effect1_dropShadow_335_404" result="shape"/>
</filter>
</defs>
</svg>
