<svg width="28" height="30" viewBox="0 0 28 30" fill="none" xmlns="http://www.w3.org/2000/svg">
<path fill-rule="evenodd" clip-rule="evenodd" d="M2.5 0C1.11929 0 0 1.11929 0 2.5C0 3.88071 1.11929 5 2.5 5H17.5C18.1566 5 18.8068 5.12935 19.4134 5.3806C20.0201 5.6319 20.5713 6.00015 21.0356 6.46445C21.4998 6.92875 21.8681 7.47995 22.1194 8.0866C22.3707 8.6932 22.5 9.3434 22.5 10C22.5 10.6566 22.3707 11.3068 22.1194 11.9134C21.8681 12.5201 21.4998 13.0712 21.0356 13.5356C20.5713 13.9999 20.0201 14.3681 19.4134 14.6194C18.8068 14.8707 18.1566 15 17.5 15H12.5C11.1193 15 10 16.1193 10 17.5C10 18.8807 11.1193 20 12.5 20H17.5C18.8132 20 20.1136 19.7414 21.3268 19.2388C22.5401 18.7362 23.6425 17.9996 24.5711 17.0711C25.4996 16.1425 26.2362 15.0401 26.7388 13.8268C27.2414 12.6136 27.5 11.3132 27.5 10C27.5 8.6868 27.2414 7.3864 26.7388 6.17315C26.2362 4.95991 25.4996 3.85752 24.5711 2.92893C23.6425 2.00035 22.5401 1.26375 21.3268 0.761205C20.1136 0.258657 18.8132 0 17.5 0H2.5ZM5 7.5C3.61929 7.5 2.5 8.6193 2.5 10V27.5C2.5 28.8807 3.61929 30 5 30C6.3807 30 7.5 28.8807 7.5 27.5V15C7.5 13.6193 8.6193 12.5 10 12.5H17.5C18.8807 12.5 20 11.3807 20 10C20 8.6193 18.8807 7.5 17.5 7.5H7.5H5Z" fill="white" fill-opacity="0.2"/>
</svg>
