<svg width="26" height="26" viewBox="0 0 26 26" fill="none" xmlns="http://www.w3.org/2000/svg">
<g clip-path="url(#clip0_377_1390)">
<path fill-rule="evenodd" clip-rule="evenodd" d="M0 13C0 5.82028 5.82028 0 13 0C20.1797 0 26 5.82028 26 13C26 20.1797 20.1797 26 13 26C5.82028 26 0 20.1797 0 13ZM23.4839 13C23.4839 7.20509 18.794 2.51613 13 2.51613C7.20509 2.51613 2.51613 7.20599 2.51613 13C2.51613 18.7949 7.20599 23.4839 13 23.4839C18.7949 23.4839 23.4839 18.794 23.4839 13ZM19.6026 8.58349C19.9401 8.246 19.9412 7.69915 19.605 7.3603L18.7584 6.50685C18.4204 6.16607 17.8697 6.16496 17.5303 6.50438L13.1104 10.9243L8.58349 6.3974C8.246 6.05991 7.69915 6.05881 7.3603 6.39494L6.50685 7.24158C6.16607 7.57962 6.16496 8.13027 6.50438 8.46968L11.0347 13L6.50192 17.5328C6.16346 17.8713 6.16346 18.42 6.50192 18.7584L7.35197 19.6085C7.69042 19.9469 8.23916 19.9469 8.57762 19.6085L13.1104 15.0757L17.5328 19.4981C17.8713 19.8365 18.42 19.8365 18.7584 19.4981L19.6085 18.6481C19.9469 18.3095 19.9469 17.7609 19.6085 17.4224L15.1861 13L19.6026 8.58349Z" fill="#F34723"/>
</g>
<defs>
<clipPath id="clip0_377_1390">
<rect width="26" height="26" fill="white"/>
</clipPath>
</defs>
</svg>
